<?xml version="1.0" encoding="utf-8"?>
<!-- Generator: Adobe Illustrator 21.1.0, SVG Export Plug-In . SVG Version: 6.00 Build 0)  -->
<svg version="1.1" id="Calque_1" xmlns="http://www.w3.org/2000/svg" xmlns:xlink="http://www.w3.org/1999/xlink" x="0px" y="0px"
	 viewBox="0 0 283.5 283.5" style="enable-background:new 0 0 283.5 283.5;" xml:space="preserve">
<style type="text/css">
	.st0{fill:#FFFFFF;}
</style>
<g>
	<path class="st0" d="M271.3,236.4c-1.8-12.9-4.9-26.3-5-39.4c-0.2-14.6-0.2-29.3-0.2-43.9c0-6.9-0.1-13.9,0.1-20.8
		c0.2-9.9,4-19.6,2.9-29.5c-0.7-5.8-2.5-11.7-4.9-17.1c-1.2-2.6-4-5.3-3.8-8c0.4-5.7-1-9.1-4.8-13.4c-3.2-3.6-6.7-7-10.4-10.2
		c-2.5-2.2-5.4-5.1-8.6-6.2c-2.8-1-6.3-0.7-9.2-0.6c-8.8,0.3-17.9,1.5-26.3,4.4c-8.3,2.9-13.3,9.7-16.5,17.7
		c-2,5.3-3.1,11.1-2.4,16.7c0.3,2.5,1.3,4.8,1.5,7.4c0.9,12.1-0.6,24.8-1.3,36.9c-1,16-2.1,32.1-4.7,48c-0.7,4-1.1,9.7-3.6,13.1
		c-0.7,1-1.8,1.4-2.7,2.1c0,0-0.1,0-0.1,0c-0.9-0.4-1.9-0.6-2.9-1.1c-6.8-3.8-10.8-12.3-14.1-19c-6-12.1-10.9-25-15.4-37.7
		c-2.7-7.6-4.7-15.6-7.7-23.1c2.4-1.7,4.4-4.5,6-6.8c3.4-4.6,6.5-9.5,8.8-14.7c4.5-10.4,1.5-21.2-7.7-28c-4-2.9-7.4-6.4-11.4-9.3
		c-5.3-3.8-11-5.7-17.3-6.8c-8.3-1.5-14.8-2.6-23,0.7c-6,2.4-11.4,6.1-16.9,9.5c-3.4,2.1-6.9,4-9.4,7.1c-4.5,5.6-6.2,13.3-8.3,20
		c-2.2,6.8-4.4,13.6-6,20.6c-0.7,3.4-1.4,6.6-0.3,10c0.9,3,2,5.9,3,8.8c3.6,10.2,7.2,20.4,10.9,30.5c4,11.3,8.1,22.5,12.1,33.8
		c2.1,5.9,4.8,12.5,6.3,19c-3.9-2.6-7.9-4.9-12.1-6.7c-7.7-3.2-15.1-1.8-22.7,1.3c-9.2,3.8-17.7,10-23.6,18
		c-4.2,5.6-6.6,11.7-7.6,18.2h6.9c0-0.4,0.1-0.7,0.1-1.1c1.5-11,8-20.6,16.5-27.4c6.4-5.1,14.2-10.1,22.5-7
		c7.6,2.9,14.8,7.9,21.1,13c-0.2-0.5,0.5-1.2,1.5-1.8c-1.1,0.6-1.8,1.2-1.5,1.8c0,0.1,0.1,0.2,0.2,0.3c8.5,7.5,17.1,14.9,25.7,22.3
		h10c-4.6-4-9.2-8-13.8-11.9c-5-4.3-9.9-8.5-14.8-12.8c0,0,0,0,0,0c-0.1-6.2-2.5-12.8-4.4-18.7c-2.9-9.1-6.3-18.1-9.6-27.1
		c-6.3-17.6-12.8-35.1-18.8-52.8c-2.7-8,0.9-16.4,3.2-24.1c3.3-10.7,5.5-25.3,15.8-31.6C80,54.3,88,46.7,97.1,48.3
		c4.7,0.8,9.8,1.5,14.3,3.1c3.9,1.4,7.4,3.6,10.6,6.2c-10.8-5.5-24.4-5.3-34.1,2.8c-3.1,2.6-5.7,5.8-7.1,9.6
		c-1.5,3.7-2.3,6.8,0.8,9.7c4.7,4.3,9.8,8.2,14.8,12c0.2,0.3,0.5,0.5,0.9,0.6c0.6,0.2,1.3,0.3,2.1,0.2c1.9-0.2,3.9-1.2,4-2.7
		c0.5-3.9,1.3-7.8,3.8-11c5-6.3,14.3-7.2,21.7-7.3c1.6,0,6.5-1.4,4.7-3.9c-0.3-0.4-0.6-0.8-0.9-1.2c1.8,1.5,3.4,3.1,4.7,5
		c3.1,4.5,4.5,10.9,3.1,16.3c-1.5,5.6-4.6,10.8-7.7,15.6c-1.6,2.4-3.7,6.1-6.1,8.5c1.1-0.4,2.5-0.7,3.3-0.4c-0.8-0.3-2.2,0-3.3,0.4
		c-0.6,0.2-1.1,0.4-1.5,0.6c-5.7,3-13.1,2.3-19.2,1.4c-4.4-0.7-10.1-1.5-13.6-4.5c-1.8-1.5-8.5,1.3-6.8,2.7
		c4.9,4.2,13.4,5.2,19.5,5.8c6.5,0.6,13.3,0.4,19.5-1.6c0,0,0,0,0,0c2.8,7.2,4.8,14.9,7.3,22.1c4.5,12.7,9.4,25.6,15.4,37.6
		c5.3,10.6,12.8,24,26.5,19c3.2-1.1,6.7-3.1,8.2-6.2c2-4.3,2.6-9.6,3.4-14.3c2.5-16,3.6-32.3,4.6-48.5c0.2-3.2,0.4-6.5,0.5-9.7
		c3.8,5,9.3,8.1,15.9,9.2c20.7,3.5,37.6-8.7,46.7-26.5c1.6-3.2,3.1-6.5,4.3-9.9c2.2,5.2,3.9,10.9,4.4,16.5c0.9,9.8-2.7,19.3-3,29.1
		c-0.4,15.8-0.1,31.7,0,47.5c0.1,10.6,0.2,20.7,1.6,31.1c1.1,8.2,2.4,16.4,3.6,24.7h7.4C271.4,237.4,271.4,236.9,271.3,236.4z
		 M102.7,75.5c-2.6,2.5-4.2,5.4-5.3,8.7c-1.8-1.4-3.6-2.8-5.3-4.3c-1.9-1.6-5.2-3.4-5.3-6c-0.1-3.1,2.2-6.8,4.1-9
		c9-10.6,24.2-6.6,33,2.2C116.2,67.9,108.4,70,102.7,75.5z M130.7,111.9c0.2,0.2,0.3,0.4,0.4,0.6C131,112.3,130.9,112.1,130.7,111.9
		z M130.2,111.5C130.1,111.5,130.1,111.5,130.2,111.5C130.1,111.5,130.1,111.5,130.2,111.5z M171.6,193.6
		C172.2,193.5,172.3,193.9,171.6,193.6L171.6,193.6z M259.9,78.7c0.1,0.1,0.1,0.1,0.2,0.2C260.1,78.9,260,78.8,259.9,78.7z
		 M258.4,78.4C258.4,78.4,258.3,78.4,258.4,78.4C258.3,78.4,258.4,78.4,258.4,78.4z M183.7,91.7c0-0.2,0-0.3,0.1-0.5
		C183.7,91.4,183.7,91.6,183.7,91.7c0.8,6.6,1.1,13.4,3.9,19.6c0.5,1.1,1,2,1.6,3c-0.6-0.9-1.1-1.9-1.6-3
		C184.8,105.1,184.5,98.4,183.7,91.7z M253,80.4c0,0.1-0.1,0.1-0.1,0.2c-3.3,15.2-12,35.3-27.8,40.9c-10.5,3.7-23.6,0-29.2-9.9
		c-3.7-6.7-4-14.3-5-21.8c0-0.1,0-0.1-0.1-0.1c0,0,0,0,0,0c-0.5-3-1.5-5.9-1.5-9c0-6.3,1.9-12.5,5-17.9c2.1-3.7,4.8-7.9,8.8-9.6
		c4.2-1.8,9.3-2.2,13.8-2.7c3.8-0.4,8.4-1.1,12.2-0.2c3,0.7,5.6,3.2,7.9,5.2c4.1,3.5,8.1,7.2,11.6,11.3c1.6,1.8,3.1,3.7,4,6
		c1,2.7,0.4,4.8,0.3,7.5C253,80.2,253,80.3,253,80.4c0.5-1.2,3.3-2,5.2-2C256.3,78.4,253.5,79.2,253,80.4z"/>
	<path class="st0" d="M236.8,74.6c-3.8-6-12.6-8.9-19.2-8.6c-7.9,0.4-18.2,4.2-21.9,11.8c-1.4,2.9-1.1,6.4-1.1,9.6
		c-0.1,4.9-0.1,9.8,0.2,14.7c0.2,3,4.5,3.1,6.5,1.5c9.6-4.5,20.9-5.4,31.3-3.4c2,0.4,4.6-0.9,5-3c1-5.7,1-11.4,0.5-17.1
		C237.8,78.1,237.8,76.2,236.8,74.6z M230.6,93.9c-9.5-1.1-19.6,0-28.6,3.3c-0.2-5.2-0.2-10.5,0.1-15.7c0.4-6.7,9.1-9.9,14.8-10
		c4.4-0.1,10.8,2.2,13.2,6.4c-0.1-0.1,0.1,0.4,0.1,0.9c0.2,1.6,0.4,3.2,0.5,4.8C231,87.1,231,90.5,230.6,93.9z"/>
</g>
</svg>
