<?xml version="1.0" encoding="utf-8"?>
<!-- Generator: Adobe Illustrator 21.1.0, SVG Export Plug-In . SVG Version: 6.00 Build 0)  -->
<svg version="1.1" id="Calque_1" xmlns="http://www.w3.org/2000/svg" xmlns:xlink="http://www.w3.org/1999/xlink" x="0px" y="0px"
	 viewBox="0 0 200 200" style="enable-background:new 0 0 200 200;" xml:space="preserve">
<style type="text/css">
	.st0{fill:#FFF5F0;}
	.st1{clip-path:url(#SVGID_2_);}
	.st2{fill:#FFEB00;}
	.st3{fill:#FFFFFF;}
	.st4{fill:#660036;}
	.st5{fill:#ABF5FF;}
	.st6{clip-path:url(#SVGID_4_);}
	.st7{fill:#E03E00;}
	.st8{fill:#282856;}
	.st9{clip-path:url(#SVGID_6_);}
	.st10{fill:#32FFA6;}
</style>
<g>
	
		<ellipse transform="matrix(0.6034 -0.7975 0.7975 0.6034 -41.1445 122.3868)" class="st5" cx="102.5" cy="102.6" rx="61.8" ry="61.8"/>
	<g>
		<defs>
			
				<ellipse id="SVGID_3_" transform="matrix(0.9999 -1.447860e-02 1.447860e-02 0.9999 -1.3667 1.3501)" cx="92.6" cy="95.1" rx="61.8" ry="61.8"/>
		</defs>
		<clipPath id="SVGID_2_">
			<use xlink:href="#SVGID_3_"  style="overflow:visible;"/>
		</clipPath>
		<g class="st1">
			<g>
				<path class="st7" d="M2.5,62.6c10.8-5.4,21.7-10.5,32.7-15.4c5.5-2.5,11-4.9,16.5-7.3l16.6-7.1l16.7-6.9
					c5.6-2.2,11.2-4.5,16.8-6.6c11.2-4.4,22.5-8.6,34-12.4c-10.8,5.4-21.7,10.5-32.7,15.4c-5.5,2.5-11,4.9-16.5,7.3L70,36.6
					l-16.7,6.9c-5.6,2.2-11.2,4.5-16.8,6.6C25.3,54.5,14,58.7,2.5,62.6z"/>
			</g>
			<g>
				<path class="st7" d="M5.8,70.5C16.6,65.1,27.6,60,38.6,55.1c5.5-2.5,11-4.9,16.5-7.3l16.6-7.1l16.7-6.9
					c5.6-2.2,11.2-4.5,16.8-6.6c11.2-4.4,22.5-8.6,34-12.4c-10.8,5.4-21.7,10.5-32.7,15.4c-5.5,2.5-11,4.9-16.5,7.3l-16.6,7.1
					l-16.7,6.9c-5.6,2.2-11.2,4.5-16.8,6.6C28.6,62.4,17.3,66.7,5.8,70.5z"/>
			</g>
			<g>
				<path class="st7" d="M9.2,78.4C19.9,73,30.9,67.9,41.9,63c5.5-2.5,11-4.9,16.5-7.3l16.6-7.1l16.7-6.9c5.6-2.2,11.2-4.5,16.8-6.6
					c11.2-4.4,22.5-8.6,34-12.4c-10.8,5.4-21.7,10.5-32.7,15.4c-5.5,2.5-11,4.9-16.5,7.3l-16.6,7.1l-16.7,6.9
					c-5.6,2.2-11.2,4.5-16.8,6.6C31.9,70.4,20.6,74.6,9.2,78.4z"/>
			</g>
			<g>
				<path class="st7" d="M12.5,86.4c10.8-5.4,21.7-10.5,32.7-15.4c5.5-2.5,11-4.9,16.5-7.3l16.6-7.1l16.7-6.9
					c5.6-2.2,11.2-4.5,16.8-6.6c11.2-4.4,22.5-8.6,34-12.4c-10.8,5.4-21.7,10.5-32.7,15.4c-5.5,2.5-11,4.9-16.5,7.3L80,60.4
					l-16.7,6.9c-5.6,2.2-11.2,4.5-16.8,6.6C35.2,78.3,23.9,82.5,12.5,86.4z"/>
			</g>
			<g>
				<path class="st7" d="M15.8,94.3c10.8-5.4,21.7-10.5,32.7-15.4c5.5-2.5,11-4.9,16.5-7.3l16.6-7.1l16.7-6.9
					c5.6-2.2,11.2-4.5,16.8-6.6c11.2-4.4,22.5-8.6,34-12.4C138.4,44,127.5,49,116.5,54c-5.5,2.5-11,4.9-16.5,7.3l-16.6,7.1
					l-16.7,6.9c-5.6,2.2-11.2,4.5-16.8,6.6C38.5,86.2,27.2,90.4,15.8,94.3z"/>
			</g>
			<g>
				<path class="st7" d="M19.1,102.2c10.8-5.4,21.7-10.5,32.7-15.4c5.5-2.5,11-4.9,16.5-7.3L85,72.4l16.7-6.9
					c5.6-2.2,11.2-4.5,16.8-6.6c11.2-4.4,22.5-8.6,34-12.4c-10.8,5.4-21.7,10.5-32.7,15.4c-5.5,2.5-11,4.9-16.5,7.3l-16.6,7.1
					l-16.7,6.9c-5.6,2.2-11.2,4.5-16.8,6.6C41.8,94.1,30.5,98.4,19.1,102.2z"/>
			</g>
			<g>
				<path class="st7" d="M22.4,110.1c10.8-5.4,21.7-10.5,32.7-15.4c5.5-2.5,11-4.9,16.5-7.3l16.6-7.1l16.7-6.9
					c5.6-2.2,11.2-4.5,16.8-6.6c11.2-4.4,22.5-8.6,34-12.4c-10.8,5.4-21.7,10.5-32.7,15.4c-5.5,2.5-11,4.9-16.5,7.3l-16.6,7.1
					L73.2,91c-5.6,2.2-11.2,4.5-16.8,6.6C45.1,102.1,33.8,106.3,22.4,110.1z"/>
			</g>
			<g>
				<path class="st7" d="M25.7,118.1c10.8-5.4,21.7-10.5,32.7-15.4c5.5-2.5,11-4.9,16.5-7.3l16.6-7.1l16.7-6.9
					c5.6-2.2,11.2-4.5,16.8-6.6c11.2-4.4,22.5-8.6,34-12.4c-10.8,5.4-21.7,10.5-32.7,15.4c-5.5,2.5-11,4.9-16.5,7.3l-16.6,7.1
					L76.5,99c-5.6,2.2-11.2,4.5-16.8,6.6C48.4,110,37.2,114.2,25.7,118.1z"/>
			</g>
			<g>
				<path class="st7" d="M29,126c10.8-5.4,21.7-10.5,32.7-15.4c5.5-2.5,11-4.9,16.5-7.3l16.6-7.1l16.7-6.9
					c5.6-2.2,11.2-4.5,16.8-6.6c11.2-4.4,22.5-8.6,34-12.4c-10.8,5.4-21.7,10.5-32.7,15.4c-5.5,2.5-11,4.9-16.5,7.3L96.5,100
					l-16.7,6.9c-5.6,2.2-11.2,4.5-16.8,6.6C51.8,117.9,40.5,122.1,29,126z"/>
			</g>
			<g>
				<path class="st7" d="M32.3,133.9c10.8-5.4,21.7-10.5,32.7-15.4c5.5-2.5,11-4.9,16.5-7.3l16.6-7.1l16.7-6.9
					c5.6-2.2,11.2-4.5,16.8-6.6c11.2-4.4,22.5-8.6,34-12.4C155,83.6,144,88.7,133,93.6c-5.5,2.5-11,4.9-16.5,7.3L99.8,108l-16.7,6.9
					c-5.6,2.2-11.2,4.5-16.8,6.6C55.1,125.8,43.8,130.1,32.3,133.9z"/>
			</g>
			<g>
				<path class="st7" d="M35.6,141.8c10.8-5.4,21.7-10.5,32.7-15.4c5.5-2.5,11-4.9,16.5-7.3l16.6-7.1l16.7-6.9
					c5.6-2.2,11.2-4.5,16.8-6.6c11.2-4.4,22.5-8.6,34-12.4c-10.8,5.4-21.7,10.5-32.7,15.4c-5.5,2.5-11,4.9-16.5,7.3l-16.6,7.1
					l-16.7,6.9c-5.6,2.2-11.2,4.5-16.8,6.6C58.4,133.7,47.1,138,35.6,141.8z"/>
			</g>
			<g>
				<path class="st7" d="M38.9,149.7c10.8-5.4,21.7-10.5,32.7-15.4c5.5-2.5,11-4.9,16.5-7.3l16.6-7.1l16.7-6.9
					c5.6-2.2,11.2-4.5,16.8-6.6c11.2-4.4,22.5-8.6,34-12.4c-10.8,5.4-21.7,10.5-32.7,15.4c-5.5,2.5-11,4.9-16.5,7.3l-16.6,7.1
					l-16.7,6.9c-5.6,2.2-11.2,4.5-16.8,6.6C61.7,141.7,50.4,145.9,38.9,149.7z"/>
			</g>
			<g>
				<path class="st7" d="M42.3,157.7C53,152.2,64,147.2,75,142.2c5.5-2.5,11-4.9,16.5-7.3l16.6-7.1l16.7-6.9
					c5.6-2.2,11.2-4.5,16.8-6.6c11.2-4.4,22.5-8.6,34-12.4c-10.8,5.4-21.7,10.5-32.7,15.4c-5.5,2.5-11,4.9-16.5,7.3l-16.6,7.1
					L93,138.6c-5.6,2.2-11.2,4.5-16.8,6.6C65,149.6,53.7,153.8,42.3,157.7z"/>
			</g>
			<g>
				<path class="st7" d="M45.6,165.6c10.8-5.4,21.7-10.5,32.7-15.4c5.5-2.5,11-4.9,16.5-7.3l16.6-7.1l16.7-6.9
					c5.6-2.2,11.2-4.5,16.8-6.6c11.2-4.4,22.5-8.6,34-12.4c-10.8,5.4-21.7,10.5-32.7,15.4c-5.5,2.5-11,4.9-16.5,7.3l-16.6,7.1
					l-16.7,6.9c-5.6,2.2-11.2,4.5-16.8,6.6C68.3,157.5,57,161.7,45.6,165.6z"/>
			</g>
			<g>
				<path class="st7" d="M48.9,173.5c10.8-5.4,21.7-10.5,32.7-15.4c5.5-2.5,11-4.9,16.5-7.3l16.6-7.1l16.7-6.9
					c5.6-2.2,11.2-4.5,16.8-6.6c11.2-4.4,22.5-8.6,34-12.4c-10.8,5.4-21.7,10.5-32.7,15.4c-5.5,2.5-11,4.9-16.5,7.3l-16.6,7.1
					l-16.7,6.9c-5.6,2.2-11.2,4.5-16.8,6.6C71.6,165.4,60.3,169.7,48.9,173.5z"/>
			</g>
			<g>
				<path class="st7" d="M52.2,181.4C63,176,73.9,170.9,84.9,166c5.5-2.5,11-4.9,16.5-7.3l16.6-7.1l16.7-6.9
					c5.6-2.2,11.2-4.5,16.8-6.6c11.2-4.4,22.5-8.6,34-12.4c-10.8,5.4-21.7,10.5-32.7,15.4c-5.5,2.5-11,4.9-16.5,7.3l-16.6,7.1
					l-16.7,6.9c-5.6,2.2-11.2,4.5-16.8,6.6C74.9,173.4,63.6,177.6,52.2,181.4z"/>
			</g>
			<g>
				<path class="st7" d="M55.5,189.4c10.8-5.4,21.7-10.5,32.7-15.4c5.5-2.5,11-4.9,16.5-7.3l16.6-7.1l16.7-6.9
					c5.6-2.2,11.2-4.5,16.8-6.6c11.2-4.4,22.5-8.6,34-12.4c-10.8,5.4-21.7,10.5-32.7,15.4c-5.5,2.5-11,4.9-16.5,7.3l-16.6,7.1
					l-16.7,6.9c-5.6,2.2-11.2,4.5-16.8,6.6C78.2,181.3,66.9,185.5,55.5,189.4z"/>
			</g>
		</g>
	</g>
	<g>
		<path class="st3" d="M171.8,101.4c1.5-1.7,3.3-1.7,4.7-0.9c1.5,0.8,1.4,3.2,1.4,3.2s0.3,3.9-7.7,15.1c-8,11.2-10.3,16.1-15.2,24.9
			c-4.9,8.8-12.2,15.3-21.7,20.6c-9.6,5.3-16.9-1.8-16.9-1.8c-1.5-1.2-4.8-6.7-5.1-7.2s-3.3-4.9-7.6-7.8c-4.2-3-6.6-16.6-8.4-24.3
			c0,0-4.2-18.1-10.6-24.1c-2.8-2.6-3.3-6.7-3.3-6.7c-0.6-3.8,0.3-7,3.2-9.8c3-2.9,4.8-0.5,5.4,0.9c0.6,1.4,0.8,4,1.9,6.1
			c5.9,10.7,10.7,16,17.3,18.5c0,0,9.4,2.7,14.7-3.6c0,0,3.8-3.9,5.6-6.2c5.4-6.9,19.7-21.9,25.4-27.4c3.5-3.3,6.8-4.1,9.3-1.7
			c2.5,2.4-0.2,5.3-0.2,5.3c1.9-2,7.3-6.7,11.9-1.8c3,3.3-1.9,8.8-1.9,8.8l-1.3,1.3c1.9-2,4-3.7,7.2-1.2c3.2,2.5-0.4,8.5-1.9,10.8
			c-1.5,2.3-5.2,8.4-5.2,8.4L171.8,101.4z"/>
		<path class="st3" d="M171.8,102c1.5-1.7,3.3-1.7,4.7-0.9c1.5,0.8,1.4,3.2,1.4,3.2s0.3,3.9-7.7,15.1c-8,11.2-10.3,16.1-15.2,24.9
			c-4.9,8.8-12.2,15.3-21.7,20.6c-9.6,5.3-16.9-1.8-16.9-1.8c-1.5-1.2-4.8-6.7-5.1-7.2c-0.3-0.5-3.3-4.9-7.6-7.8
			c-4.2-3-6.6-16.6-8.4-24.3c0,0-4.2-18.1-10.6-24.1c-2.8-2.6-3.3-6.7-3.3-6.7c-0.6-3.8,0.3-7,3.2-9.8c3-2.9,4.8-0.5,5.4,0.9
			c0.6,1.4,0.8,4,1.9,6.1c5.9,10.7,10.7,16,17.3,18.5c0,0,9.4,2.7,14.7-3.6c0,0,3.8-3.9,5.6-6.2c5.4-6.9,19.7-21.9,25.4-27.4
			c3.5-3.3,6.8-4.1,9.3-1.7c2.5,2.4-0.2,5.3-0.2,5.3c1.9-2,7.3-6.7,11.9-1.8c3,3.3-1.9,8.8-1.9,8.8l-1.3,1.3c1.9-2,4-3.7,7.2-1.2
			c3.2,2.5-0.4,8.5-1.9,10.8c-1.5,2.3-5.2,8.4-5.2,8.4L171.8,102z"/>
		<g>
			<g>
				<path class="st7" d="M151.7,127.1c1.2-3.3,3.4-6.1,5.6-8.8c2.3-2.6,4.3-5.4,6.4-8.1c2.1-2.7,4.2-5.5,6.4-8.2
					c0.3-0.3,0.5-0.7,0.8-1c0.3-0.4,0.7-0.7,1.1-1c0.8-0.6,2-1,3.2-0.9c0.6,0.1,1.1,0.2,1.6,0.5c0.2,0.1,0.5,0.3,0.8,0.5
					c0.3,0.2,0.5,0.5,0.6,0.7c0.4,0.5,0.5,1,0.7,1.6c0.1,0.5,0.2,1,0.2,1.6l0-0.1c0,0.3,0,0.4,0,0.6c0,0.2,0,0.3-0.1,0.4
					c-0.1,0.3-0.1,0.6-0.2,0.8c-0.1,0.5-0.3,1-0.5,1.5c-0.3,1-0.8,1.9-1.2,2.8c-0.9,1.8-1.9,3.6-2.9,5.3c-1.1,1.7-2.2,3.4-3.3,5
					c-1.1,1.6-2.2,3.2-3.3,4.8c-2.2,3.3-4.2,6.6-6.2,10c-2,3.4-3.8,6.9-5.8,10.3c-2.1,3.5-4.7,6.6-7.6,9.4c-2.9,2.8-6.1,5.2-9.5,7.3
					c-1.7,1.1-3.4,2-5.2,2.9c-1.8,0.9-3.8,1.5-5.9,1.7c-4.1,0.3-8.2-1.2-11.3-3.9l0,0c-1.1-1-1.8-2.1-2.6-3.3
					c-0.8-1.1-1.5-2.3-2.2-3.4c-0.7-1.1-1.5-2.2-2.4-3.2c-0.9-1-1.8-2-2.8-2.9c-0.5-0.4-1-0.9-1.5-1.3c-0.3-0.2-0.5-0.4-0.8-0.6
					c-0.3-0.2-0.5-0.4-0.8-0.6c-1.1-1-1.9-2.2-2.5-3.4c-1.3-2.5-2.1-5.1-2.9-7.7c-0.8-2.6-1.4-5.3-2-7.9c-0.6-2.6-1.2-5.3-2-7.8
					c-1.5-5.1-3.3-10.2-5.7-14.9l-1-1.7l-1.1-1.6c-0.4-0.5-0.8-1-1.2-1.5l-0.6-0.7l-0.3-0.3l-0.4-0.4c-1.1-1.1-1.8-2.5-2.4-3.9
					c-0.3-0.7-0.5-1.4-0.7-2.1c-0.1-0.4-0.2-0.7-0.2-1.1c-0.1-0.4-0.1-0.7-0.1-1.1c-0.1-1.5-0.1-3,0.4-4.5c0.4-1.5,1.2-2.9,2.1-4.1
					c0.5-0.6,0.9-1.1,1.6-1.7c0.6-0.5,1.3-1.1,2.4-1.3c1-0.3,2.3,0,3.1,0.6c0.8,0.6,1.4,1.3,1.8,2.1c0.4,0.9,0.6,1.6,0.7,2.3
					c0.2,0.7,0.3,1.3,0.5,1.9c0.2,0.6,0.4,1.2,0.6,1.7c0.1,0.1,0.1,0.2,0.2,0.4l0.2,0.4l0.5,0.9c1.3,2.3,2.7,4.6,4.2,6.7
					c3,4.3,6.7,8,11.5,9.8l-0.1,0c1.3,0.3,2.9,0.5,4.4,0.5c1.5,0,3-0.2,4.3-0.7c1.4-0.4,2.6-1.1,3.7-2.1l1.7-1.7l1.7-1.7
					c1.1-1.2,2.2-2.4,3.2-3.6c1.1-1.3,2.1-2.5,3.2-3.8c2.2-2.5,4.4-4.9,6.6-7.2c4.5-4.7,9.1-9.4,13.9-13.9c1.2-1.1,2.3-2.3,3.7-3.3
					c1.4-1,3-1.8,4.8-1.9c0.9,0,1.8,0.2,2.5,0.7c0.7,0.5,1.4,1.1,1.8,1.8c0.5,0.8,0.5,1.7,0.3,2.6c-0.2,0.8-0.7,1.6-1.3,2.2
					c-0.1,0.1-0.1,0.1-0.2,0c-0.1-0.1-0.1-0.1,0-0.2l0,0c0.5-0.6,0.9-1.3,1-2.1c0.1-0.8,0-1.5-0.4-2.1c-0.8-1.2-2.4-2.1-3.8-2
					c-1.5,0.1-2.9,0.9-4.1,1.9c-1.2,1-2.3,2.2-3.4,3.4c-4.5,4.7-8.9,9.5-13.2,14.4c-2.2,2.4-4.3,4.9-6.4,7.3c-1,1.2-2.1,2.5-3,3.8
					c-1,1.3-2.1,2.6-3.2,3.8l-1.7,1.8l-0.8,0.9l-0.9,1c-1.3,1.3-3,2.2-4.7,2.8c-1.7,0.6-3.5,0.9-5.3,0.9c-1.8,0-3.5-0.1-5.3-0.6
					l-0.1,0l0,0c-1.4-0.5-2.7-1.1-3.9-1.9c-1.2-0.7-2.4-1.6-3.5-2.6c-2.1-1.9-4-4.1-5.6-6.4c-1.6-2.3-3-4.6-4.4-7l-0.5-0.9L90.6,90
					c-0.1-0.2-0.2-0.4-0.3-0.5c-0.3-0.7-0.6-1.4-0.8-2.2c-0.2-0.7-0.3-1.4-0.5-2c-0.1-0.6-0.3-1.2-0.5-1.6c-0.2-0.4-0.5-0.8-0.8-1
					c-0.3-0.2-0.4-0.2-0.7-0.2c-0.6,0.1-1.6,1-2.4,1.9c-1.5,1.8-2.2,4.1-2,6.5c0.2,2.4,1.1,4.9,2.6,6.6l0.7,0.7l0.8,0.8
					c0.5,0.6,0.9,1.2,1.3,1.7c0.4,0.6,0.7,1.2,1.1,1.8l1,1.9c2.4,5,4.1,10.2,5.5,15.5c0.7,2.7,1.2,5.4,1.7,8
					c0.5,2.6,1.1,5.3,1.7,7.9c0.7,2.6,1.4,5.2,2.5,7.6c0.5,1.2,1.2,2.3,2.1,3.1c0.2,0.2,0.5,0.4,0.8,0.6c0.3,0.2,0.5,0.4,0.8,0.6
					c0.5,0.4,1.1,0.9,1.6,1.4c1,0.9,1.9,2,2.8,3c0.9,1.1,1.7,2.1,2.4,3.4c0.7,1.2,1.4,2.3,2.1,3.4c0.7,1.1,1.5,2.3,2.4,3.1l0,0l0,0
					c2.9,2.5,6.8,3.9,10.6,3.5c3.8-0.3,7.1-2.7,10.4-4.8c3.2-2.2,6.2-4.7,8.9-7.5c2.7-2.8,5-5.9,6.9-9.3c1.9-3.4,3.7-7,5.6-10.4
					c1.9-3.5,4-6.9,6.3-10.2c1.1-1.6,2.3-3.3,3.4-4.9c1.2-1.6,2.3-3.2,3.3-4.8c1.1-1.6,2-3.3,2.9-5c0.4-0.9,0.8-1.7,1.1-2.6
					c0.2-0.4,0.3-0.9,0.4-1.3c0.1-0.2,0.1-0.4,0.1-0.6c0-0.1,0-0.2,0-0.3c0-0.1,0-0.2,0-0.2l0-0.1c0-0.6-0.1-1.4-0.4-1.8
					c-0.1-0.1-0.1-0.2-0.2-0.3c-0.1-0.1-0.1-0.1-0.3-0.2c-0.3-0.2-0.6-0.3-0.9-0.3c-0.6-0.1-1.2,0.1-1.7,0.4c-0.5,0.3-1.1,1-1.6,1.7
					l-6.7,7.9c-1.1,1.3-2.2,2.7-3.4,4l-1.7,2c-0.6,0.7-1.2,1.3-1.8,1.9c-1.2,1.3-2.3,2.5-3.4,3.9c-1,1.4-2,2.8-2.7,4.4l0,0
					c0,0.1-0.1,0.1-0.2,0.1C151.7,127.2,151.7,127.2,151.7,127.1z"/>
			</g>
			<g>
				<path class="st7" d="M172.8,100.4c1.1-2.9,2.5-5.6,3.9-8.2c0.7-1.3,1.5-2.5,2.1-3.8c0.6-1.3,1.1-2.6,1.3-3.8
					c0.1-0.6,0.1-1.2-0.1-1.7c-0.2-0.5-0.5-0.9-1.1-1.4c-0.5-0.4-1.1-0.7-1.7-0.9c-0.6-0.1-1.3,0-1.9,0.3c-1.2,0.7-2.2,1.8-3.1,3
					c-0.9,1.2-1.8,2.4-2.7,3.6c-1.7,2.5-3.5,4.9-5.4,7.3c-1.9,2.4-3.8,4.7-5.8,7l-0.8,0.8c-0.2,0.2-0.7,0.7-0.9,0.8
					c-0.5,0.5-1,1-1.6,1.5l-3.1,3.2c-1,1.1-2.1,2.2-3,3.2c-0.2,0.3-0.4,0.5-0.6,0.8c-0.2,0.3-0.4,0.6-0.6,0.9
					c-0.3,0.6-0.7,1.3-0.9,2l0,0c0,0.1-0.1,0.1-0.2,0.1c-0.1,0-0.1-0.1-0.1-0.1c0-0.8,0.1-1.6,0.3-2.3c0.1-0.4,0.2-0.8,0.3-1.1
					c0.1-0.4,0.3-0.8,0.5-1.1c0.8-1.4,1.6-2.6,2.5-3.9c0.9-1.2,1.8-2.4,2.8-3.6c0.5-0.6,1-1.2,1.6-1.8c0.4-0.4,0.4-0.5,0.7-0.8
					l0.7-0.8c1.9-2.3,4-4.5,6.1-6.7c2-2.2,4.2-4.4,6.3-6.5c1.1-1.1,2.2-2.1,3.2-3.2c1-1.1,2-2.3,3.4-3.2c0.7-0.4,1.6-0.7,2.5-0.7
					c0.9,0,1.7,0.3,2.5,0.7c0.7,0.3,1.6,0.9,2.1,1.8c0.5,0.9,0.7,1.9,0.7,2.8c-0.1,1.8-0.6,3.4-1.4,4.8c-0.4,0.7-0.8,1.4-1.2,2.1
					c-0.4,0.7-0.9,1.3-1.3,1.9c-1.7,2.5-3.5,4.9-5.6,7.1c-0.1,0.1-0.2,0.1-0.2,0C172.8,100.5,172.7,100.5,172.8,100.4z"/>
			</g>
			<g>
				<path class="st7" d="M174,81.1c0.6-1.2,1.2-2.4,1.6-3.6c0.2-0.6,0.3-1.2,0.4-1.8c0-0.6,0-1.1-0.2-1.5c-0.2-0.4-0.4-0.7-0.9-1.1
					c-0.4-0.4-0.9-0.7-1.4-1c-1-0.5-2-0.6-3.1-0.5c-2.2,0.3-4.7,1.7-6.6,3.6c-1.9,1.9-3.6,4-5.2,6.2c-1.6,2.2-3.3,4.4-5,6.5
					c-1.7,2.1-3.4,4.2-5.3,6.2c-1.8,2-3.7,3.9-5.7,5.9c-1,1-1.9,1.9-2.9,2.8c-0.5,0.5-1,0.9-1.4,1.4l-0.2,0.2
					c-0.1,0.1-0.2,0.2-0.3,0.3c-0.2,0.1-0.4,0.2-0.5,0.2c-0.4,0.1-0.7,0.2-1.1,0.2c-0.1,0-0.2,0-0.2-0.1c0-0.1,0-0.1,0.1-0.2l0,0
					c0.6-0.3,1.2-0.7,1.3-1.2c0.3-0.6,0.7-1.2,1.1-1.8c0.7-1.2,1.5-2.3,2.3-3.4c1.6-2.2,3.3-4.4,5.1-6.4c1.8-2.1,3.7-4,5.6-6
					c1.9-2,3.9-3.9,5.9-5.7c2-1.8,4-3.7,5.8-5.8c0.9-1.1,1.8-2.1,2.9-3.1c1.1-1,2.3-1.9,3.9-2.3c1.5-0.4,3.4-0.3,4.8,0.6
					c0.7,0.4,1.3,0.9,1.9,1.5c0.3,0.2,0.5,0.6,0.8,1c0.2,0.4,0.4,0.8,0.5,1.2c0.2,0.9,0.1,1.7,0,2.5c-0.2,0.8-0.5,1.5-0.9,2.1
					c-0.7,1.3-1.7,2.3-2.8,3.2c-0.1,0.1-0.2,0-0.2,0C173.9,81.2,173.9,81.2,174,81.1L174,81.1z"/>
			</g>
			<g>
				<path class="st7" d="M140.8,139.1c-1.1-0.1-2.3-0.1-3.4,0.1c-0.5,0-1.1,0.2-1.6,0.3c-0.5,0.1-1.1,0.2-1.6,0.4
					c-2.1,0.6-4.2,1.4-6.1,2.4c-2,0.9-3.9,2.1-5.8,3.2c-0.9,0.6-1.9,1.2-2.8,1.8c-0.9,0.6-1.9,1.3-2.9,1.9c0.7-0.9,1.5-1.7,2.3-2.5
					c0.8-0.8,1.7-1.5,2.6-2.3c0.9-0.7,1.8-1.4,2.8-2c1-0.6,2-1.2,3-1.7c1-0.5,2.1-0.9,3.2-1.3l1.7-0.5c0.6-0.1,1.1-0.2,1.7-0.3
					c0.6-0.1,1.2-0.1,1.7-0.2c0.6,0,1.2,0,1.8,0C138.6,138.4,139.8,138.6,140.8,139.1z"/>
			</g>
			<g>
				<path class="st7" d="M119.5,124.9c0.7,0.9,1.1,1.9,1.4,2.9c0.3,1,0.5,2.1,0.5,3.1c0,1.1,0,2.2-0.3,3.2c-0.3,1-0.8,2.1-1.6,2.8
					c0.1-1.1,0.2-2.1,0.2-3c0-1,0-1.9-0.1-2.9C119.5,129,119.4,127,119.5,124.9z"/>
			</g>
			<g>
				<path class="st7" d="M135.5,132.7c-1.1-1.4-1.9-3-2.5-4.6c-0.6-1.6-1-3.4-1.3-5.1c-0.1-0.9-0.2-1.8-0.2-2.6c0-0.9,0-1.8,0.2-2.7
					c0.2-1.8,0.7-3.5,1.4-5.1c0,1.8-0.1,3.4,0,5.1c0.1,1.7,0.2,3.3,0.4,5C133.8,126.1,134.6,129.3,135.5,132.7z"/>
			</g>
			<g>
				<path class="st7" d="M158.8,80c0.3,0.3,0.4,0.8,0.5,1.1l0.2,0.9c0.1,0.3,0.1,0.6,0.2,0.9c0.1,0.3,0.2,0.7,0.2,1.1
					c-0.8-0.2-1.4-1-1.6-1.8c-0.1-0.4-0.1-0.8,0-1.2C158.5,80.6,158.7,80.3,158.8,80z"/>
			</g>
			<g>
				<path class="st7" d="M161,113.1c-0.3,0.1-0.6,0-0.9-0.1c-0.3-0.1-0.5-0.3-0.7-0.5c-0.2-0.2-0.3-0.4-0.4-0.7
					c-0.1-0.3-0.1-0.6,0.1-0.9c0.3,0.2,0.5,0.3,0.7,0.4c0.2,0.1,0.3,0.3,0.5,0.4C160.6,112.1,160.9,112.5,161,113.1z"/>
			</g>
			<g>
				<path class="st7" d="M146.7,112.4c-0.1,0.3-0.2,0.5-0.3,0.7c-0.1,0.2-0.3,0.4-0.5,0.6c-0.2,0.2-0.4,0.3-0.6,0.4
					c-0.2,0.1-0.5,0.2-0.8,0.1c0.4-0.4,0.6-0.7,1-1c0.2-0.1,0.3-0.3,0.5-0.4C146.3,112.6,146.5,112.5,146.7,112.4z"/>
			</g>
			<g>
				<path class="st7" d="M137.7,105.8c-0.1-0.1-0.2-0.3-0.2-0.4c0-0.1-0.1-0.3-0.1-0.4c0-0.1,0-0.3,0.1-0.4c0.1-0.1,0.1-0.3,0.2-0.4
					c0.1,0.1,0.2,0.3,0.2,0.4c0,0.1,0.1,0.3,0.1,0.4c0,0.1,0,0.3-0.1,0.4C137.9,105.5,137.8,105.7,137.7,105.8z"/>
			</g>
			<g>
				<path class="st7" d="M153.7,123.5c-0.1,0.4-0.4,0.6-0.6,0.9c-0.2,0.3-0.5,0.5-0.8,0.6c-0.3,0.2-0.6,0.3-1,0.4
					c-0.3,0.1-0.7,0.1-1.1,0.1c0.3-0.2,0.6-0.3,0.9-0.5l0.9-0.5l0.9-0.5C153.2,123.8,153.5,123.7,153.7,123.5z"/>
			</g>
		</g>
		<path class="st3" d="M28.2,102c-1.5-1.7-3.3-1.7-4.7-0.9c-1.5,0.8-1.4,3.2-1.4,3.2s-0.3,3.9,7.7,15.1c8,11.2,10.3,16.1,15.2,24.9
			s12.2,15.3,21.7,20.6c9.6,5.3,16.9-1.8,16.9-1.8c1.5-1.2,4.8-6.7,5.1-7.2c0.3-0.5,3.3-4.9,7.6-7.8c4.2-3,6.6-16.6,8.4-24.3
			c0,0,4.2-18.1,10.6-24.1c2.8-2.6,3.3-6.7,3.3-6.7c0.6-3.8-0.3-7-3.2-9.8c-3-2.9-4.8-0.5-5.4,0.9c-0.6,1.4-0.8,4-1.9,6.1
			c-5.9,10.7-10.7,16-17.3,18.5c0,0-9.4,2.7-14.7-3.6c0,0-3.8-3.9-5.6-6.2C65,91.7,50.8,76.7,45,71.1c-3.5-3.3-6.8-4.1-9.3-1.7
			c-2.5,2.4,0.2,5.3,0.2,5.3c-1.9-2-7.3-6.7-11.9-1.8c-3,3.3,1.9,8.8,1.9,8.8l1.3,1.3c-1.9-2-4-3.7-7.2-1.2
			c-3.2,2.5,0.4,8.5,1.9,10.8c1.5,2.3,5.2,8.4,5.2,8.4L28.2,102z"/>
		<g>
			<g>
				<path class="st7" d="M27,100.6c-2.1-2.3-3.9-4.7-5.6-7.1c-0.4-0.6-0.9-1.2-1.3-1.9c-0.4-0.7-0.8-1.4-1.2-2.1
					c-0.7-1.4-1.3-3-1.4-4.8c0-0.9,0.1-1.9,0.7-2.8c0.5-0.9,1.4-1.5,2.1-1.8c0.7-0.4,1.6-0.7,2.5-0.7c0.9,0,1.8,0.3,2.5,0.7
					c1.4,0.9,2.4,2.1,3.4,3.2c1,1.1,2.1,2.2,3.2,3.2c2.2,2.1,4.3,4.2,6.3,6.5c2,2.2,4.1,4.4,6.1,6.7l0.7,0.8
					c0.3,0.3,0.4,0.4,0.7,0.8c0.6,0.6,1.1,1.2,1.6,1.8c1,1.2,1.9,2.4,2.8,3.6c0.9,1.2,1.8,2.5,2.5,3.9c0.2,0.3,0.4,0.7,0.5,1.1
					c0.1,0.4,0.2,0.8,0.3,1.1c0.2,0.8,0.3,1.5,0.3,2.3c0,0.1-0.1,0.2-0.1,0.2c-0.1,0-0.1,0-0.1-0.1l0,0c-0.3-0.7-0.6-1.4-0.9-2
					c-0.2-0.3-0.4-0.6-0.6-0.9c-0.2-0.3-0.4-0.5-0.6-0.8c-1-1.1-2-2.2-3-3.2l-3.1-3.2c-0.5-0.5-1.1-1.1-1.6-1.5
					c-0.2-0.2-0.7-0.6-0.9-0.8l-0.8-0.8c-2.1-2.2-3.9-4.6-5.8-7c-1.9-2.3-3.7-4.8-5.4-7.3c-0.9-1.2-1.8-2.5-2.7-3.6
					c-0.9-1.2-1.9-2.3-3.1-3c-0.6-0.3-1.3-0.4-1.9-0.3c-0.6,0.1-1.2,0.4-1.7,0.9c-0.6,0.5-0.9,0.9-1.1,1.4c-0.2,0.5-0.1,1.1-0.1,1.7
					c0.2,1.2,0.7,2.5,1.3,3.8c0.6,1.3,1.3,2.5,2.1,3.8c1.4,2.7,2.8,5.4,3.9,8.2c0,0.1,0,0.2-0.1,0.2C27.1,100.6,27,100.6,27,100.6z"
					/>
			</g>
			<g>
				<path class="st7" d="M25.8,81.3c-1.1-0.9-2.1-1.9-2.8-3.2c-0.4-0.6-0.7-1.3-0.9-2.1c-0.2-0.8-0.3-1.6,0-2.5
					c0.1-0.4,0.3-0.9,0.5-1.2c0.2-0.4,0.5-0.8,0.8-1c0.5-0.6,1.2-1.1,1.9-1.5c1.4-0.9,3.3-1,4.8-0.6c1.6,0.4,2.8,1.3,3.9,2.3
					c1.1,1,2,2,2.9,3.1c1.8,2.1,3.7,4,5.8,5.8c2,1.8,4,3.7,5.9,5.7c1.9,2,3.8,3.9,5.6,6c1.8,2.1,3.5,4.2,5.1,6.4
					c0.8,1.1,1.6,2.2,2.3,3.4c0.4,0.6,0.7,1.2,1.1,1.8c0.1,0.5,0.8,0.8,1.3,1.2l0,0c0.1,0,0.1,0.1,0.1,0.2c0,0.1-0.1,0.1-0.2,0.1
					c-0.4-0.1-0.7-0.1-1.1-0.2c-0.2-0.1-0.4-0.1-0.5-0.2c-0.1-0.1-0.2-0.1-0.3-0.3l-0.2-0.2c-0.4-0.5-1-0.9-1.4-1.4
					c-1-0.9-2-1.9-2.9-2.8c-1.9-1.9-3.8-3.9-5.7-5.9c-1.8-2-3.5-4.1-5.3-6.2c-1.8-2.1-3.4-4.2-5-6.5c-1.6-2.2-3.3-4.3-5.2-6.2
					c-1.9-1.9-4.3-3.3-6.6-3.6c-1.1-0.1-2.1,0-3.1,0.5c-0.5,0.3-0.9,0.6-1.4,1c-0.5,0.4-0.7,0.7-0.9,1.1c-0.2,0.4-0.2,0.9-0.2,1.5
					c0.1,0.6,0.2,1.2,0.4,1.8c0.4,1.2,1,2.4,1.6,3.6l0,0c0,0.1,0,0.2-0.1,0.2C25.9,81.3,25.8,81.3,25.8,81.3z"/>
			</g>
			<g>
				<path class="st7" d="M48,127.2c-0.7-1.6-1.6-3-2.7-4.4c-1-1.4-2.2-2.7-3.4-3.9c-0.6-0.6-1.2-1.2-1.8-1.9l-1.7-2
					c-1.1-1.3-2.3-2.6-3.4-4l-6.7-7.9c-0.6-0.7-1.1-1.3-1.6-1.7c-0.6-0.4-1.1-0.5-1.7-0.4c-0.3,0-0.6,0.2-0.9,0.3
					c-0.2,0.1-0.2,0.1-0.3,0.2c-0.1,0.1-0.2,0.2-0.2,0.3c-0.3,0.4-0.4,1.2-0.4,1.8l0,0.1c0-0.1,0,0.1,0,0.2c0,0.1,0,0.2,0,0.3
					c0,0.2,0.1,0.4,0.1,0.6c0.1,0.4,0.3,0.9,0.4,1.3c0.3,0.9,0.7,1.7,1.1,2.6c0.9,1.7,1.9,3.4,2.9,5c1,1.6,2.2,3.2,3.3,4.8
					c1.2,1.6,2.3,3.2,3.4,4.9c2.3,3.3,4.3,6.7,6.3,10.2c1.9,3.5,3.7,7,5.6,10.4c1.9,3.4,4.2,6.5,6.9,9.3c2.7,2.8,5.7,5.3,8.9,7.5
					c3.3,2.1,6.6,4.5,10.4,4.8c3.8,0.4,7.7-1,10.6-3.5l0,0l0,0c0.9-0.8,1.7-2,2.4-3.1c0.7-1.1,1.5-2.3,2.1-3.4
					c0.7-1.2,1.6-2.3,2.4-3.4c0.9-1.1,1.8-2.1,2.8-3c0.5-0.5,1-0.9,1.6-1.4c0.3-0.2,0.5-0.4,0.8-0.6c0.3-0.2,0.6-0.4,0.8-0.6
					c0.9-0.8,1.6-1.9,2.1-3.1c1.1-2.4,1.8-5,2.5-7.6c0.7-2.6,1.2-5.2,1.7-7.9c0.5-2.6,1-5.3,1.7-8c1.4-5.3,3.1-10.5,5.5-15.5l1-1.9
					c0.4-0.6,0.7-1.2,1.1-1.8c0.4-0.6,0.8-1.2,1.3-1.7l0.8-0.8l0.7-0.7c1.5-1.7,2.4-4.2,2.6-6.6c0.2-2.4-0.4-4.7-2-6.5
					c-0.8-0.9-1.7-1.8-2.4-1.9c-0.3,0-0.4,0-0.7,0.2c-0.3,0.2-0.6,0.6-0.8,1c-0.2,0.4-0.3,1-0.5,1.6c-0.1,0.6-0.3,1.3-0.5,2
					c-0.2,0.7-0.4,1.4-0.8,2.2c-0.1,0.2-0.2,0.4-0.3,0.5l-0.3,0.5l-0.5,0.9c-1.3,2.4-2.8,4.7-4.4,7c-1.6,2.3-3.4,4.5-5.6,6.4
					c-1.1,0.9-2.2,1.8-3.5,2.6c-1.2,0.7-2.6,1.4-3.9,1.9l0,0c0,0-0.1,0-0.1,0c-1.8,0.5-3.5,0.6-5.3,0.6c-1.8,0-3.6-0.3-5.3-0.9
					c-1.7-0.6-3.3-1.6-4.7-2.8l-0.9-1l-0.8-0.9l-1.7-1.8c-1.1-1.2-2.2-2.5-3.2-3.8c-1-1.3-2-2.5-3-3.8c-2.1-2.5-4.2-4.9-6.4-7.3
					c-4.3-4.9-8.7-9.7-13.2-14.4c-1.1-1.2-2.2-2.4-3.4-3.4c-1.2-1-2.6-1.8-4.1-1.9c-1.5-0.1-3,0.7-3.8,2c-0.4,0.6-0.5,1.4-0.4,2.1
					c0.2,0.7,0.5,1.5,1,2.1l0,0c0.1,0.1,0,0.2,0,0.2c-0.1,0-0.1,0-0.2,0c-0.6-0.6-1-1.4-1.3-2.2c-0.2-0.8-0.2-1.8,0.3-2.6
					c0.5-0.8,1.1-1.4,1.8-1.8c0.8-0.5,1.7-0.7,2.5-0.7c1.8,0,3.4,0.9,4.8,1.9c1.4,1,2.5,2.2,3.7,3.3c4.7,4.5,9.3,9.2,13.9,13.9
					c2.2,2.4,4.5,4.8,6.6,7.2c1.1,1.2,2.2,2.5,3.2,3.8c1,1.2,2.1,2.4,3.2,3.6l1.7,1.7l1.7,1.7c1.1,1,2.3,1.7,3.7,2.1
					c1.4,0.5,2.9,0.7,4.3,0.7c1.5,0,3.1-0.2,4.4-0.5l-0.1,0c4.8-1.8,8.5-5.5,11.5-9.8c1.5-2.1,2.9-4.4,4.2-6.7l0.5-0.9l0.2-0.4
					c0.1-0.1,0.1-0.2,0.2-0.4c0.2-0.5,0.4-1.1,0.6-1.7c0.2-0.6,0.3-1.2,0.5-1.9c0.2-0.7,0.3-1.4,0.7-2.3c0.4-0.8,0.9-1.5,1.8-2.1
					c0.8-0.6,2.1-0.9,3.1-0.6c1,0.3,1.8,0.8,2.4,1.3c0.6,0.5,1.1,1.1,1.6,1.7c0.9,1.2,1.7,2.6,2.1,4.1c0.4,1.5,0.5,3.1,0.4,4.5
					c0,0.4-0.1,0.7-0.1,1.1c-0.1,0.4-0.1,0.8-0.2,1.1c-0.2,0.7-0.4,1.4-0.7,2.1c-0.6,1.4-1.3,2.7-2.4,3.9l-0.4,0.4l-0.3,0.3
					l-0.6,0.7c-0.4,0.5-0.8,1-1.2,1.5l-1.1,1.6l-1,1.7c-2.4,4.7-4.2,9.8-5.7,14.9c-0.8,2.6-1.3,5.2-2,7.8c-0.6,2.6-1.3,5.3-2,7.9
					c-0.8,2.6-1.6,5.2-2.9,7.7c-0.6,1.2-1.4,2.5-2.5,3.4c-0.3,0.3-0.6,0.5-0.8,0.6c-0.3,0.2-0.5,0.4-0.8,0.6c-0.5,0.4-1,0.8-1.5,1.3
					c-1,0.9-1.9,1.9-2.8,2.9c-0.9,1-1.7,2.1-2.4,3.2c-0.7,1.2-1.4,2.3-2.2,3.4c-0.8,1.1-1.5,2.3-2.6,3.3l0,0
					c-3.1,2.7-7.2,4.2-11.3,3.9c-2-0.2-4.1-0.7-5.9-1.7c-1.8-0.9-3.5-1.9-5.2-2.9c-3.4-2.1-6.6-4.5-9.5-7.3c-2.9-2.8-5.5-6-7.6-9.4
					c-2.1-3.4-3.9-6.9-5.8-10.3c-1.9-3.4-4-6.7-6.2-10c-1.1-1.6-2.2-3.2-3.3-4.8c-1.1-1.6-2.3-3.3-3.3-5c-1.1-1.7-2.1-3.5-2.9-5.3
					c-0.4-0.9-0.8-1.9-1.2-2.8c-0.2-0.5-0.3-1-0.5-1.5c-0.1-0.3-0.1-0.5-0.2-0.8c0-0.1,0-0.3-0.1-0.4c0-0.2,0-0.3,0-0.6l0,0.1
					c0-0.6,0.1-1.1,0.2-1.6c0.1-0.5,0.3-1.1,0.7-1.6c0.2-0.3,0.4-0.5,0.6-0.7c0.3-0.2,0.6-0.4,0.8-0.5c0.5-0.2,1-0.4,1.6-0.5
					c1.1-0.1,2.3,0.2,3.2,0.9c0.4,0.3,0.8,0.7,1.1,1c0.3,0.4,0.6,0.7,0.8,1c2.2,2.7,4.3,5.5,6.4,8.2c2.2,2.7,4.1,5.6,6.4,8.1
					c2.2,2.7,4.4,5.5,5.6,8.8c0,0.1,0,0.2-0.1,0.2C48.1,127.3,48,127.3,48,127.2L48,127.2z"/>
			</g>
			<g>
				<path class="st7" d="M59.2,139.1c1-0.5,2.2-0.7,3.4-0.8c0.6-0.1,1.2,0,1.8,0c0.6,0,1.2,0.1,1.7,0.2c0.6,0.1,1.2,0.2,1.7,0.3
					l1.7,0.5c1.1,0.4,2.2,0.8,3.2,1.3c1.1,0.5,2,1.1,3,1.7c1,0.6,1.9,1.3,2.8,2c0.9,0.7,1.7,1.5,2.6,2.3c0.8,0.8,1.6,1.7,2.3,2.5
					c-1-0.6-1.9-1.2-2.9-1.9c-0.9-0.6-1.9-1.2-2.8-1.8c-1.9-1.1-3.8-2.3-5.8-3.2c-2-1-4-1.8-6.1-2.4c-0.5-0.1-1.1-0.2-1.6-0.4
					c-0.5-0.1-1.1-0.2-1.6-0.3C61.4,139,60.3,138.9,59.2,139.1z"/>
			</g>
			<g>
				<path class="st7" d="M80.5,124.9c0.1,2.2-0.1,4.1-0.1,6.1c0,1-0.1,2-0.1,2.9c0,1,0.1,1.9,0.2,3c-0.8-0.8-1.3-1.8-1.6-2.8
					c-0.3-1.1-0.4-2.1-0.3-3.2c0-1.1,0.2-2.1,0.5-3.1C79.5,126.7,79.9,125.8,80.5,124.9z"/>
			</g>
			<g>
				<path class="st7" d="M64.5,132.7c0.9-3.4,1.6-6.6,2-10c0.2-1.7,0.4-3.3,0.4-5c0.1-1.7,0-3.4,0-5.1c0.7,1.6,1.2,3.3,1.4,5.1
					c0.2,0.9,0.1,1.8,0.2,2.7c0,0.9-0.1,1.8-0.2,2.6c-0.2,1.8-0.6,3.5-1.3,5.1C66.4,129.7,65.6,131.3,64.5,132.7z"/>
			</g>
			<g>
				<path class="st7" d="M41.2,80c0.2,0.4,0.4,0.7,0.5,1.1c0.1,0.4,0.1,0.8,0,1.2C41.4,83,40.9,83.8,40,84c0-0.4,0.1-0.8,0.2-1.1
					c0.1-0.3,0.2-0.6,0.2-0.9l0.2-0.9C40.8,80.7,40.8,80.3,41.2,80z"/>
			</g>
			<g>
				<path class="st7" d="M39,113.1c0.1-0.7,0.4-1,0.7-1.4c0.2-0.2,0.3-0.3,0.5-0.4c0.2-0.1,0.4-0.2,0.7-0.4c0.2,0.3,0.1,0.6,0.1,0.9
					c-0.1,0.3-0.2,0.5-0.4,0.7c-0.2,0.2-0.4,0.4-0.7,0.5C39.6,113.1,39.3,113.2,39,113.1z"/>
			</g>
			<g>
				<path class="st7" d="M53.3,112.4c0.2,0.1,0.4,0.2,0.6,0.4c0.2,0.1,0.4,0.3,0.5,0.4c0.3,0.3,0.6,0.6,1,1c-0.3,0.1-0.5,0-0.8-0.1
					c-0.2-0.1-0.4-0.2-0.6-0.4c-0.2-0.2-0.4-0.3-0.5-0.6C53.4,112.8,53.3,112.6,53.3,112.4z"/>
			</g>
			<g>
				<path class="st7" d="M62.3,105.8c-0.1-0.1-0.2-0.3-0.2-0.4c-0.1-0.1-0.1-0.3-0.1-0.4c0-0.1,0-0.3,0.1-0.4c0-0.1,0.1-0.3,0.2-0.4
					c0.1,0.1,0.2,0.3,0.2,0.4c0.1,0.1,0.1,0.3,0.1,0.4c0,0.1,0,0.3-0.1,0.4C62.5,105.5,62.5,105.7,62.3,105.8z"/>
			</g>
			<g>
				<path class="st7" d="M46.3,123.5c0.3,0.2,0.6,0.4,0.9,0.5l0.9,0.5l0.9,0.5c0.3,0.2,0.6,0.3,0.9,0.5c-0.4,0.1-0.7,0-1.1-0.1
					c-0.3-0.1-0.7-0.2-1-0.4c-0.3-0.2-0.6-0.4-0.8-0.6C46.6,124.1,46.3,123.8,46.3,123.5z"/>
			</g>
		</g>
	</g>
</g>
</svg>
