<?xml version="1.0" encoding="utf-8"?>
<!-- Generator: Adobe Illustrator 21.1.0, SVG Export Plug-In . SVG Version: 6.00 Build 0)  -->
<svg version="1.1" id="Calque_1" xmlns="http://www.w3.org/2000/svg" xmlns:xlink="http://www.w3.org/1999/xlink" x="0px" y="0px"
	 viewBox="0 0 200 200" style="enable-background:new 0 0 200 200;" xml:space="preserve">
<style type="text/css">
	.st0{fill:#FFF5F0;}
	.st1{clip-path:url(#SVGID_2_);}
	.st2{fill:#FFEB00;}
	.st3{fill:#FFFFFF;}
	.st4{fill:#660036;}
	.st5{fill:#ABF5FF;}
	.st6{clip-path:url(#SVGID_4_);}
	.st7{fill:#E03E00;}
	.st8{fill:#282856;}
	.st9{clip-path:url(#SVGID_6_);}
	.st10{fill:#32FFA6;}
</style>
<g>
	
		<ellipse transform="matrix(0.6034 -0.7975 0.7975 0.6034 -41.1048 124.8414)" class="st8" cx="104.9" cy="103.7" rx="61.8" ry="61.8"/>
	<g>
		<defs>
			
				<ellipse id="SVGID_5_" transform="matrix(0.9999 -1.447860e-02 1.447860e-02 0.9999 -1.3837 1.3863)" cx="95.1" cy="96.3" rx="61.8" ry="61.8"/>
		</defs>
		<clipPath id="SVGID_2_">
			<use xlink:href="#SVGID_5_"  style="overflow:visible;"/>
		</clipPath>
		<g class="st1">
			<g>
				<path class="st10" d="M5,63.8c10.8-5.3,21.8-10.3,32.8-15.2c5.5-2.5,11-4.8,16.6-7.2L71,34.3l16.7-6.9
					c5.6-2.2,11.2-4.5,16.8-6.7C115.8,16.3,127,12,138.4,8c-10.8,5.3-21.8,10.3-32.8,15.2c-5.5,2.5-11,4.8-16.6,7.2l-16.6,7.1
					l-16.7,6.9c-5.6,2.2-11.2,4.5-16.8,6.7C27.7,55.5,16.4,59.8,5,63.8z"/>
			</g>
			<g>
				<path class="st10" d="M8.3,71.7c10.8-5.3,21.8-10.3,32.8-15.2c5.5-2.5,11-4.8,16.6-7.2l16.6-7.1l16.7-6.9
					c5.6-2.2,11.2-4.5,16.8-6.7c11.2-4.4,22.5-8.7,33.9-12.6c-10.8,5.3-21.8,10.3-32.8,15.2c-5.5,2.5-11,4.8-16.6,7.2l-16.6,7.1
					L59,52.4c-5.6,2.2-11.2,4.5-16.8,6.7C31,63.4,19.7,67.7,8.3,71.7z"/>
			</g>
			<g>
				<path class="st10" d="M11.6,79.6c10.8-5.3,21.8-10.3,32.8-15.2c5.5-2.5,11-4.8,16.6-7.2l16.6-7.1l16.7-6.9
					c5.6-2.2,11.2-4.5,16.8-6.7c11.2-4.4,22.5-8.7,33.9-12.6c-10.8,5.3-21.8,10.3-32.8,15.2c-5.5,2.5-11,4.8-16.6,7.2L79,53.4
					l-16.7,6.9c-5.6,2.2-11.2,4.5-16.8,6.7C34.3,71.4,23,75.7,11.6,79.6z"/>
			</g>
			<g>
				<path class="st10" d="M14.9,87.5c10.8-5.3,21.8-10.3,32.8-15.2c5.5-2.5,11-4.8,16.6-7.2L81,58l16.7-6.9
					c5.6-2.2,11.2-4.5,16.8-6.7c11.2-4.4,22.5-8.7,33.9-12.6c-10.8,5.3-21.8,10.3-32.8,15.2c-5.5,2.5-11,4.8-16.6,7.2l-16.6,7.1
					l-16.7,6.9c-5.6,2.2-11.2,4.5-16.8,6.7C37.6,79.3,26.4,83.6,14.9,87.5z"/>
			</g>
			<g>
				<path class="st10" d="M18.3,95.5c10.8-5.3,21.8-10.3,32.8-15.2c5.5-2.5,11-4.8,16.6-7.2l16.6-7.1l16.7-6.9
					c5.6-2.2,11.2-4.5,16.8-6.7c11.2-4.4,22.5-8.7,33.9-12.6c-10.8,5.3-21.8,10.3-32.8,15.2c-5.5,2.5-11,4.8-16.6,7.2l-16.6,7.1
					l-16.7,6.9c-5.6,2.2-11.2,4.5-16.8,6.7C40.9,87.2,29.7,91.5,18.3,95.5z"/>
			</g>
			<g>
				<path class="st10" d="M21.6,103.4c10.8-5.3,21.8-10.3,32.8-15.2c5.5-2.5,11-4.8,16.6-7.2l16.6-7.1l16.7-6.9
					c5.6-2.2,11.2-4.5,16.8-6.7c11.2-4.4,22.5-8.7,33.9-12.6C144.2,53,133.2,58,122.2,62.9c-5.5,2.5-11,4.8-16.6,7.2L89,77.2
					L72.3,84c-5.6,2.2-11.2,4.5-16.8,6.7C44.2,95.1,33,99.4,21.6,103.4z"/>
			</g>
			<g>
				<path class="st10" d="M24.9,111.3C35.7,106,46.7,101,57.7,96.1c5.5-2.5,11-4.8,16.6-7.2l16.6-7.1l16.7-6.9
					c5.6-2.2,11.2-4.5,16.8-6.7c11.2-4.4,22.5-8.7,33.9-12.6c-10.8,5.3-21.8,10.3-32.8,15.2c-5.5,2.5-11,4.8-16.6,7.2l-16.6,7.1
					L75.6,92c-5.6,2.2-11.2,4.5-16.8,6.7C47.6,103.1,36.3,107.4,24.9,111.3z"/>
			</g>
			<g>
				<path class="st10" d="M28.2,119.2C39,113.9,50,108.9,61,104c5.5-2.5,11-4.8,16.6-7.2l16.6-7.1l16.7-6.9
					c5.6-2.2,11.2-4.5,16.8-6.7c11.2-4.4,22.5-8.7,33.9-12.6c-10.8,5.3-21.8,10.3-32.8,15.2c-5.5,2.5-11,4.8-16.6,7.2L95.6,93
					l-16.7,6.9c-5.6,2.2-11.2,4.5-16.8,6.7C50.9,111,39.6,115.3,28.2,119.2z"/>
			</g>
			<g>
				<path class="st10" d="M31.5,127.2c10.8-5.3,21.8-10.3,32.8-15.2c5.5-2.5,11-4.8,16.6-7.2l16.6-7.1l16.7-6.9
					c5.6-2.2,11.2-4.5,16.8-6.7c11.2-4.4,22.5-8.7,33.9-12.6c-10.8,5.3-21.8,10.3-32.8,15.2c-5.5,2.5-11,4.8-16.6,7.2l-16.6,7.1
					l-16.7,6.9c-5.6,2.2-11.2,4.5-16.8,6.7C54.2,118.9,42.9,123.2,31.5,127.2z"/>
			</g>
			<g>
				<path class="st10" d="M34.8,135.1c10.8-5.3,21.8-10.3,32.8-15.2c5.5-2.5,11-4.8,16.6-7.2l16.6-7.1l16.7-6.9
					c5.6-2.2,11.2-4.5,16.8-6.7c11.2-4.4,22.5-8.7,33.9-12.6c-10.8,5.3-21.8,10.3-32.8,15.2c-5.5,2.5-11,4.8-16.6,7.2l-16.6,7.1
					l-16.7,6.9c-5.6,2.2-11.2,4.5-16.8,6.7C57.5,126.8,46.2,131.1,34.8,135.1z"/>
			</g>
			<g>
				<path class="st10" d="M38.1,143c10.8-5.3,21.8-10.3,32.8-15.2c5.5-2.5,11-4.8,16.6-7.2l16.6-7.1l16.7-6.9
					c5.6-2.2,11.2-4.5,16.8-6.7c11.2-4.4,22.5-8.7,33.9-12.6c-10.8,5.3-21.8,10.3-32.8,15.2c-5.5,2.5-11,4.8-16.6,7.2l-16.6,7.1
					l-16.7,6.9c-5.6,2.2-11.2,4.5-16.8,6.7C60.8,134.8,49.5,139,38.1,143z"/>
			</g>
			<g>
				<path class="st10" d="M41.4,150.9c10.8-5.3,21.8-10.3,32.8-15.2c5.5-2.5,11-4.8,16.6-7.2l16.6-7.1l16.7-6.9
					c5.6-2.2,11.2-4.5,16.8-6.7c11.2-4.4,22.5-8.7,33.9-12.6c-10.8,5.3-21.8,10.3-32.8,15.2c-5.5,2.5-11,4.8-16.6,7.2l-16.6,7.1
					l-16.7,6.9c-5.6,2.2-11.2,4.5-16.8,6.7C64.1,142.7,52.8,147,41.4,150.9z"/>
			</g>
			<g>
				<path class="st10" d="M44.7,158.9c10.8-5.3,21.8-10.3,32.8-15.2c5.5-2.5,11-4.8,16.6-7.2l16.6-7.1l16.7-6.9
					c5.6-2.2,11.2-4.5,16.8-6.7c11.2-4.4,22.5-8.7,33.9-12.6c-10.8,5.3-21.8,10.3-32.8,15.2c-5.5,2.5-11,4.8-16.6,7.2l-16.6,7.1
					l-16.7,6.9c-5.6,2.2-11.2,4.5-16.8,6.7C67.4,150.6,56.1,154.9,44.7,158.9z"/>
			</g>
			<g>
				<path class="st10" d="M48.1,166.8c10.8-5.3,21.8-10.3,32.8-15.2c5.5-2.5,11-4.8,16.6-7.2l16.6-7.1l16.7-6.9
					c5.6-2.2,11.2-4.5,16.8-6.7c11.2-4.4,22.5-8.7,33.9-12.6c-10.8,5.3-21.8,10.3-32.8,15.2c-5.5,2.5-11,4.8-16.6,7.2l-16.6,7.1
					l-16.7,6.9c-5.6,2.2-11.2,4.5-16.8,6.7C70.7,158.5,59.5,162.8,48.1,166.8z"/>
			</g>
			<g>
				<path class="st10" d="M51.4,174.7c10.8-5.3,21.8-10.3,32.8-15.2c5.5-2.5,11-4.8,16.6-7.2l16.6-7.1l16.7-6.9
					c5.6-2.2,11.2-4.5,16.8-6.7c11.2-4.4,22.5-8.7,33.9-12.6c-10.8,5.3-21.8,10.3-32.8,15.2c-5.5,2.5-11,4.8-16.6,7.2l-16.6,7.1
					l-16.7,6.9c-5.6,2.2-11.2,4.5-16.8,6.7C74,166.5,62.8,170.7,51.4,174.7z"/>
			</g>
			<g>
				<path class="st10" d="M54.7,182.6c10.8-5.3,21.8-10.3,32.8-15.2c5.5-2.5,11-4.8,16.6-7.2l16.6-7.1l16.7-6.9
					c5.6-2.2,11.2-4.5,16.8-6.7c11.2-4.4,22.5-8.7,33.9-12.6c-10.8,5.3-21.8,10.3-32.8,15.2c-5.5,2.5-11,4.8-16.6,7.2l-16.6,7.1
					l-16.7,6.9c-5.6,2.2-11.2,4.5-16.8,6.7C77.3,174.4,66.1,178.7,54.7,182.6z"/>
			</g>
			<g>
				<path class="st10" d="M58,190.6c10.8-5.3,21.8-10.3,32.8-15.2c5.5-2.5,11-4.8,16.6-7.2L124,161l16.7-6.9
					c5.6-2.2,11.2-4.5,16.8-6.7c11.2-4.4,22.5-8.7,33.9-12.6c-10.8,5.3-21.8,10.3-32.8,15.2c-5.5,2.5-11,4.8-16.6,7.2l-16.6,7.1
					l-16.7,6.9c-5.6,2.2-11.2,4.5-16.8,6.7C80.7,182.3,69.4,186.6,58,190.6z"/>
			</g>
		</g>
	</g>
	<g>
		<path class="st3" d="M52.4,75.4c0,0-2.9-8.8-3.2-10.9c-0.3-2.7-0.2-5.2,2.9-6.3c3.1-1,5.6,0.3,7,3.4c1.2,2.4,10.6,22.6,11.5,24.1
			c0.9,1.6,6.9,12.7,6.9,12.7s3.3-9.4,4.9-18.9c1.6-9.6,2.4-21.8,3-24.7c0.8-3.6,3.3-6.4,7.1-5.5c4.3,1,4,4.6,4.2,5.9
			c1.6-2.6,4.2-3.8,7.4-1.9c4.8,2.8,3.6,13.3,3.5,16.9c-0.1,3-0.9,21.5-1.3,28.7c-0.5,7.1-0.7,12.5,0.8,17.5c1.6,5,5,10.3,5,10.3
			l0,0c0.9,0,1.8,0.1,2.4,0.1c4.5,0.3,6.6-2.4,9.2-5c2.6-2.6,11.5-5,16.8-5.9c5.4-0.9,8.8-0.6,11.4,3.9c2.8,4.8-2.2,9.8-7.2,11.6
			c-6.2,2.2-11.3,5-15.6,8.2c-2.9,2.1-10.6,10.6-17,16.1c-6.4,5.6-21,7.6-24.3,6.9c-4.2-0.8-3.9-0.2-11.5,0.7
			c-12.3,1.5-17.4-5.7-20.1-13.4c-2.8-7.6-3.1-21.7-3.7-34.9c-0.6-13.2-4.8-20.8-6.8-28c-2.1-7.1-0.9-11.3,1.9-12.7
			c1-0.5,2-0.5,2.8-0.3c1.2,0.3,2.1,1.2,2.6,2.3L52.4,75.4z"/>
		<g>
			<g>
				<path class="st8" d="M92.6,129.6c1.3-0.8,2.8-1.4,4.3-1.8c1.5-0.4,3-0.8,4.6-1c3.1-0.5,6.2-0.8,9.3-0.9c0.8,0,1.6,0,2.4,0
					c0.4,0,0.8,0,1.2,0c0.4,0,0.7,0,1.1,0c1.4-0.1,2.7-0.5,3.8-1.4c1.1-0.8,2.1-1.9,3.2-3.1l0.4-0.4c0.1-0.1,0.3-0.3,0.5-0.5
					c0.3-0.3,0.7-0.5,1.1-0.8c0.7-0.4,1.4-0.8,2.2-1.2c2.9-1.3,6-2.3,9-3.1c1.5-0.4,3.1-0.7,4.6-1c1.6-0.3,3.2-0.5,4.9-0.4
					c1.7,0.1,3.6,0.5,5.1,1.6c0.8,0.5,1.4,1.2,1.9,1.9c0.5,0.7,0.9,1.4,1.3,2.3c0.8,1.8,0.6,3.9-0.1,5.5c-0.8,1.7-1.9,3-3.2,4.1
					c-1.3,1.1-2.8,1.9-4.3,2.5c-0.8,0.3-1.5,0.5-2.2,0.8c-0.7,0.3-1.4,0.5-2.1,0.8c-2.8,1.1-5.6,2.5-8.2,4c-1.3,0.8-2.6,1.6-3.9,2.5
					c-1.2,0.9-2.3,1.9-3.5,3c-2.3,2.1-4.5,4.3-6.7,6.4c-2.2,2.2-4.5,4.3-6.9,6.3c-2.5,2-5.4,3.4-8.3,4.4c-3,1-6,1.8-9.1,2.3
					c-1.5,0.3-3.1,0.5-4.7,0.6c-0.4,0-0.8,0-1.2,0c-0.4,0-0.8,0-1.3-0.1c-0.8-0.1-1.5-0.2-2.2-0.3c-1.4-0.1-2.9,0.2-4.4,0.5
					c-1.5,0.3-3.1,0.5-4.6,0.7c-3.2,0.4-6.5,0.4-9.7-0.7c-3.2-1-6-3.2-8-5.8c-2-2.6-3.4-5.6-4.4-8.7c-1-3.1-1.5-6.2-1.9-9.4
					c-0.4-3.1-0.7-6.2-0.9-9.3c-0.2-3.1-0.4-6.2-0.5-9.3c-0.2-3.1-0.2-6.2-0.5-9.2c-0.3-3-0.8-6-1.5-8.9c-0.7-2.9-1.7-5.8-2.7-8.8
					c-1-2.9-2.1-5.9-2.7-9.1c-0.3-1.6-0.5-3.2-0.4-4.9c0.1-1.7,0.4-3.5,1.6-5.1c0.6-0.8,1.4-1.4,2.3-1.8c0.9-0.4,2-0.6,3-0.4
					c1,0.2,1.9,0.7,2.6,1.4c0.4,0.3,0.6,0.7,0.9,1.1c0.3,0.4,0.4,0.8,0.6,1.1c1.3,2.8,2.5,5.7,3.7,8.6c2.4,5.7,4.6,11.5,6.6,17.5
					l0,0.1l0,0.1c-0.1,0.8-0.2,1.6-0.3,2.4c-0.1,0.8-0.2,1.6-0.4,2.3l-0.3-0.1c0.1-0.8,0.2-1.5,0.2-2.3c0-0.8,0.1-1.6,0.1-2.3l0,0.1
					c-2.3-5.7-4.9-11.4-7.5-17c-1.3-2.8-2.7-5.6-4.1-8.3c-0.2-0.3-0.4-0.7-0.5-0.9c-0.2-0.2-0.4-0.5-0.6-0.7
					c-0.4-0.4-0.9-0.6-1.5-0.7c-1-0.2-2.2,0.4-2.8,1.4c-0.7,1-1,2.3-1,3.7c0,1.4,0.2,2.9,0.5,4.3c0.7,2.9,1.8,5.7,2.9,8.6
					c1.1,2.9,2.1,5.9,2.9,9c0.8,3.1,1.4,6.2,1.7,9.4c0.3,3.2,0.4,6.3,0.5,9.4c0.1,3.1,0.2,6.2,0.4,9.3c0.2,3.1,0.4,6.2,0.7,9.2
					c0.4,3,0.8,6.1,1.6,8.9c0.9,2.8,2.1,5.6,3.8,8c1.7,2.4,4,4.2,6.7,5.2c2.7,1,5.7,1.2,8.7,0.9c1.5-0.1,3.1-0.3,4.6-0.5
					c0.8-0.1,1.5-0.2,2.3-0.3c0.8-0.1,1.7-0.1,2.5,0c0.8,0.1,1.6,0.3,2.4,0.4c0.7,0.1,1.4,0.1,2.2,0.1c1.5,0,3-0.2,4.6-0.4
					c3-0.4,6-1.1,9-2.1c2.9-1,5.7-2.3,8.1-4.2c2.3-2,4.6-4.2,6.7-6.4l6.5-6.7c1.1-1.1,2.2-2.2,3.4-3.3c1.3-1,2.5-1.9,3.9-2.7
					c2.6-1.7,5.4-3.2,8.3-4.5c0.7-0.3,1.4-0.6,2.2-0.9c0.7-0.3,1.5-0.6,2.1-0.8c1.3-0.6,2.5-1.3,3.6-2.2c1.1-0.9,1.9-2,2.5-3.2
					c0.5-1.2,0.6-2.4,0.1-3.5c-0.2-0.5-0.6-1.2-1-1.7c-0.4-0.5-0.9-1-1.4-1.4c-1-0.8-2.2-1.1-3.6-1.2c-1.4-0.1-2.9,0.1-4.4,0.3
					c-1.5,0.2-3,0.5-4.5,0.9c-3,0.7-5.9,1.5-8.7,2.7c-0.7,0.3-1.3,0.6-1.9,1c-0.3,0.2-0.6,0.4-0.8,0.6c-0.1,0.1-0.2,0.2-0.4,0.3
					L124,123c-1.1,1.1-2.2,2.3-3.6,3.2c-1.4,1-3.2,1.5-4.9,1.5c-0.4,0-0.9,0-1.2-0.1c-0.4,0-0.7-0.1-1.1-0.1c-0.8,0-1.5-0.1-2.3-0.1
					c-3.1,0-6.2,0-9.2,0.3c-1.5,0.1-3.1,0.4-4.6,0.7c-1.5,0.3-3,0.7-4.4,1.4L92.6,129.6z"/>
			</g>
			<g>
				<path class="st8" d="M112,126.7c-1.7-2.2-3.2-4.5-4.5-7c-1.3-2.5-2.2-5.3-2.5-8.1c-0.4-2.8-0.4-5.6-0.3-8.4
					c0-1.4,0.1-2.8,0.2-4.1c0.1-1.4,0.2-2.7,0.3-4.1c0.4-5.5,1.2-10.9,1.5-16.4c0.2-2.7,0.3-5.5,0.4-8.2c0.1-2.8,0.1-5.5-0.2-8.2
					c-0.2-1.3-0.4-2.6-0.8-3.9c-0.4-1.2-0.9-2.4-1.7-3.2c-0.2-0.2-0.4-0.4-0.6-0.5c-0.2-0.1-0.4-0.3-0.7-0.4c-0.5-0.3-1-0.4-1.5-0.5
					c-1-0.1-1.9,0.2-2.7,0.9c-0.4,0.4-0.7,0.8-1,1.3c-0.2,0.4-0.4,0.9-0.5,1.5c-0.3,1.2-0.4,2.5-0.5,3.8c-0.1,1.3-0.1,2.6-0.2,4.1
					l-0.2,4.1c-0.4,5.5-0.9,11-1.7,16.4c-0.4,2.7-0.8,5.5-1.4,8.2c-0.6,2.7-1.2,5.4-2.1,8L91,102c0.4-2.7,0.7-5.4,0.9-8.2
					c0.2-2.7,0.4-5.5,0.5-8.2l0.9-16.4l0.2-4.1c0.1-1.3,0.1-2.8,0.3-4.2c0.2-1.4,0.3-2.8,0.7-4.3c0.2-0.7,0.4-1.5,0.9-2.3
					c0.4-0.7,1-1.3,1.6-1.9c0.6-0.6,1.4-1,2.3-1.3c0.9-0.3,1.8-0.3,2.7-0.1c0.9,0.2,1.6,0.5,2.3,0.9c0.3,0.2,0.7,0.4,1,0.7
					c0.4,0.3,0.6,0.6,0.9,0.9c1,1.3,1.5,2.8,1.8,4.2c0.3,1.4,0.4,2.9,0.4,4.3c0.1,2.8-0.3,5.6-0.4,8.3c-0.2,2.7-0.3,5.5-0.4,8.2
					c-0.2,5.5,0.1,11,0,16.5c0,2.8-0.2,5.5-0.4,8.2c-0.2,2.7-0.3,5.4-0.1,8c0.3,5.3,2.6,10.3,5,15.2L112,126.7z"/>
			</g>
			<g>
				<path class="st8" d="M52.3,75.5c-1.2-2.6-2.3-5.3-3.2-8c-0.2-0.7-0.5-1.4-0.7-2.1c-0.2-0.8-0.3-1.5-0.3-2.3c0-0.8,0-1.6,0.2-2.5
					c0.2-0.9,0.8-1.7,1.5-2.3c0.7-0.6,1.5-1,2.3-1.2c0.8-0.3,1.7-0.4,2.6-0.3c1.8,0.2,3.5,1.3,4.5,2.6c0.5,0.6,0.9,1.4,1.2,2.1
					l0.9,1.9c0.6,1.3,1.2,2.6,1.7,3.9c2.2,5.3,4.3,10.7,6.7,15.8c1.1,2.6,2.7,5.1,4.1,7.5c1.5,2.5,3,4.9,4.5,7.4l-1.8,0.1
					c1.4-5,2.7-10,3.6-15c0.5-2.5,0.8-5.1,1.2-7.6c0.4-2.6,0.6-5.1,0.9-7.7c0.3-2.6,0.6-5.2,1-7.8c0.2-1.3,0.3-2.6,0.6-3.9
					c0.2-1.3,0.6-2.8,1.3-4.1c0.7-1.3,1.8-2.5,3.2-3.2c1.4-0.7,3.1-0.6,4.4-0.2c0.7,0.2,1.3,0.5,1.9,0.9c0.6,0.4,1.1,1,1.4,1.6
					c0.7,1.3,0.7,2.7,0.6,4l-0.3,0c-0.2-1.3-0.4-2.6-1.1-3.5c-0.7-1-1.8-1.4-3-1.6c-1.2-0.2-2.3-0.1-3.2,0.5c-0.9,0.5-1.6,1.4-2,2.5
					c-0.5,1-0.7,2.1-0.8,3.4l-0.3,3.9c-0.2,2.6-0.4,5.2-0.6,7.8c-0.5,5.2-1.2,10.4-2.4,15.6c-1.2,5.2-2.7,10.2-4.7,15.1l-0.8,2.1
					l-0.9-1.9c-1.3-2.6-2.5-5.2-3.8-7.7c-1.3-2.6-2.7-5.1-3.9-7.7c-2.5-5.2-5.3-10.1-8-15.2c-0.7-1.3-1.3-2.6-2-3.8l-0.9-1.9
					c-0.3-0.6-0.6-1.1-1-1.6c-0.7-0.9-1.6-1.6-2.7-1.7c-1-0.1-2.4,0.2-3.1,0.8c-0.8,0.6-1.1,1.6-1.2,3c0,0.6,0,1.4,0.1,2
					c0.1,0.7,0.3,1.4,0.4,2.1c0.6,2.8,1.3,5.6,1.9,8.4L52.3,75.5z"/>
			</g>
			<g>
				<path class="st8" d="M90,108.5c-0.8,1.6-1.9,3-3.1,4.4c-1.2,1.3-2.5,2.5-4,3.6c-1.4,1.1-3,1.9-4.7,2.6c-1.7,0.7-3.4,1.1-5.2,1.2
					c1.6-0.8,3.1-1.6,4.6-2.5c1.4-0.9,2.9-1.8,4.2-2.8C84.7,113,87.3,110.8,90,108.5z"/>
			</g>
			<g>
				<path class="st8" d="M80.3,141.2c0-1.1,0.4-2.1,0.9-3.1c0.5-0.9,1.2-1.8,1.9-2.5c0.8-0.7,1.7-1.3,2.7-1.7c1-0.4,2.1-0.6,3.1-0.5
					c-0.9,0.6-1.7,1.1-2.5,1.7c-0.8,0.6-1.5,1.2-2.2,1.8C83,138.2,81.7,139.6,80.3,141.2z"/>
			</g>
			<g>
				<path class="st8" d="M92.6,102.6c-0.2-0.2-0.3-0.4-0.5-0.6c-0.1-0.2-0.2-0.4-0.3-0.6c-0.1-0.2-0.2-0.5-0.2-0.7
					c0-0.2-0.1-0.5-0.1-0.8c0.2,0.2,0.3,0.4,0.5,0.6c0.1,0.2,0.2,0.4,0.3,0.7c0.1,0.2,0.2,0.5,0.2,0.7
					C92.6,102.1,92.7,102.3,92.6,102.6z"/>
			</g>
			<g>
				<path class="st8" d="M64.2,102.6c0.3,0.3,0.6,0.6,0.9,0.9c0.3,0.3,0.5,0.6,0.8,1c0.2,0.3,0.5,0.7,0.6,1c0.2,0.4,0.4,0.7,0.5,1.1
					c-0.3-0.3-0.6-0.6-0.9-0.9c-0.3-0.3-0.5-0.6-0.8-1c-0.2-0.3-0.5-0.7-0.6-1C64.5,103.4,64.3,103,64.2,102.6z"/>
			</g>
			<g>
				<path class="st8" d="M69.4,128.9c0.9,0.2,1.6,0.6,2.3,1c0.7,0.5,1.3,1.1,1.8,1.7c1,1.3,1.8,2.9,1.7,4.7
					c-0.7-0.6-1.1-1.2-1.7-1.8l-1.5-1.8C71.2,131.5,70.3,130.3,69.4,128.9z"/>
			</g>
		</g>
	</g>
</g>
</svg>
