<?xml version="1.0" encoding="utf-8"?>
<!-- Generator: Adobe Illustrator 21.1.0, SVG Export Plug-In . SVG Version: 6.00 Build 0)  -->
<svg version="1.1" id="Calque_1" xmlns="http://www.w3.org/2000/svg" xmlns:xlink="http://www.w3.org/1999/xlink" x="0px" y="0px"
	 viewBox="0 0 800 800" style="enable-background:new 0 0 800 800;" xml:space="preserve">
<style type="text/css">
	.st0{fill:#4B4A4A;stroke:#4B4A4A;stroke-width:3;stroke-linejoin:round;stroke-miterlimit:10;}
	.st1{fill:#4B4A4A;}
</style>
<g>
	<g>
		<path class="st0" d="M542.6,282c-2.2-15.8-6-32.2-6.1-48.2c-0.2-17.9-0.2-35.9-0.3-53.8c0-8.5-0.1-17,0.1-25.5
			c0.3-12.1,4.9-24,3.5-36.2c-0.8-7.2-3.1-14.4-6-21c-1.4-3.2-4.8-6.5-4.6-9.8c0.5-7-1.2-11.2-5.8-16.5c-3.9-4.5-8.2-8.6-12.7-12.5
			c-3.1-2.7-6.6-6.2-10.6-7.6c-3.4-1.2-7.7-0.9-11.3-0.7c-10.8,0.4-22,1.8-32.2,5.4c-10.1,3.5-16.3,11.9-20.2,21.7
			c-2.5,6.4-3.8,13.6-2.9,20.5c0.4,3.1,1.6,5.9,1.9,9c1.1,14.8-0.7,30.4-1.6,45.2c-1.2,19.6-2.5,39.4-5.8,58.8
			c-0.8,4.9-1.3,11.9-4.4,16.1c-0.9,1.2-2.2,1.7-3.3,2.5c-0.1,0-0.1,0-0.1-0.1c-1.1-0.5-2.4-0.7-3.5-1.4
			c-8.3-4.6-13.3-15.1-17.3-23.2c-7.3-14.9-13.4-30.6-18.8-46.2c-3.3-9.3-5.7-19.2-9.5-28.3c3-2.1,5.3-5.5,7.4-8.3
			c4.2-5.6,7.9-11.7,10.7-18.1c5.6-12.8,1.9-26-9.4-34.3c-4.8-3.6-9.1-7.9-14-11.4c-6.5-4.7-13.4-7-21.3-8.4
			c-10.2-1.8-18.2-3.1-28.2,0.8c-7.4,2.9-14,7.5-20.7,11.7c-4.2,2.6-8.4,4.9-11.6,8.8c-5.6,6.9-7.6,16.3-10.2,24.5
			c-2.7,8.3-5.4,16.7-7.3,25.2c-0.9,4.2-1.7,8.1-0.4,12.3c1.1,3.6,2.5,7.2,3.7,10.8c4.4,12.5,8.9,25,13.3,37.4
			c5,13.8,9.9,27.6,14.8,41.5c2.6,7.2,5.9,15.3,7.7,23.3c-4.7-3.2-9.7-6-14.8-8.2c-9.5-3.9-18.6-2.2-27.8,1.6
			c-11.3,4.6-21.6,12.3-29,22.1c-5.1,6.8-8.1,14.4-9.4,22.3h8.5c0.1-0.5,0.1-0.9,0.2-1.4c1.9-13.5,9.8-25.2,20.3-33.6
			c7.9-6.3,17.4-12.4,27.6-8.6c9.4,3.5,18.1,9.7,25.9,15.9c-0.3-0.7,0.6-1.5,1.9-2.2c-1.3,0.7-2.2,1.5-1.9,2.2
			c0,0.1,0.1,0.2,0.2,0.3c10.4,9.2,20.9,18.3,31.5,27.3H351c-5.6-4.9-11.3-9.8-16.9-14.6c-6.1-5.2-12.2-10.4-18.2-15.7c0,0,0,0,0,0
			c-0.1-7.6-3.1-15.7-5.4-22.9c-3.6-11.2-7.8-22.2-11.7-33.3c-7.7-21.6-15.7-43.1-23-64.8c-3.3-9.8,1.1-20.1,4-29.6
			c4.1-13.2,6.7-31,19.3-38.8c9-5.5,18.8-14.8,30-12.8c5.8,1,12,1.9,17.5,3.8c4.8,1.7,9.1,4.5,13,7.6c-13.2-6.8-29.9-6.5-41.8,3.4
			c-3.8,3.2-6.9,7.1-8.8,11.8c-1.8,4.6-2.8,8.4,1,11.8c5.7,5.3,12,10.1,18.2,14.7c0.3,0.3,0.7,0.6,1.1,0.8c0.7,0.3,1.6,0.3,2.6,0.2
			c2.3-0.3,4.7-1.5,4.9-3.3c0.6-4.8,1.6-9.6,4.7-13.4c6.1-7.8,17.5-8.8,26.6-8.9c2,0,8-1.7,5.8-4.8c-0.3-0.5-0.7-1-1.1-1.4
			c2.2,1.8,4.2,3.8,5.7,6.2c3.7,5.6,5.6,13.4,3.8,20c-1.8,6.8-5.6,13.2-9.5,19.1c-1.9,2.9-4.5,7.5-7.5,10.4c1.4-0.5,3-0.8,4.1-0.4
			c-1-0.4-2.7,0-4.1,0.4c-0.7,0.3-1.4,0.5-1.8,0.8c-7,3.6-16.1,2.9-23.6,1.7c-5.4-0.8-12.4-1.8-16.7-5.5c-2.2-1.8-10.4,1.6-8.4,3.3
			c6.1,5.1,16.4,6.4,23.9,7.1c8,0.7,16.3,0.5,23.9-2c0,0,0,0,0,0c3.4,8.8,5.8,18.2,9,27.1c5.5,15.6,11.5,31.3,18.9,46.1
			c6.5,13,15.7,29.4,32.5,23.3c3.9-1.4,8.2-3.8,10-7.6c2.5-5.3,3.2-11.8,4.1-17.5c3.1-19.7,4.4-39.6,5.6-59.5c0.2-4,0.4-8,0.6-11.9
			c4.7,6.1,11.4,9.9,19.4,11.3c25.3,4.2,46.1-10.7,57.3-32.5c2-3.9,3.8-8,5.3-12.2c2.6,6.4,4.8,13.4,5.4,20.2
			c1.1,12-3.4,23.7-3.6,35.6c-0.4,19.4-0.1,38.8,0,58.2c0.1,13,0.2,25.3,2,38.2c1.4,10.1,3,20.2,4.4,30.3h9.1
			C542.7,283.2,542.6,282.6,542.6,282z M335.9,84.8c-3.1,3-5.2,6.7-6.5,10.6c-2.2-1.7-4.4-3.5-6.5-5.3c-2.4-2-6.3-4.2-6.4-7.3
			c-0.1-3.8,2.6-8.3,5-11c11.1-13,29.7-8,40.5,2.7C352.4,75.5,342.8,78,335.9,84.8z M370.2,129.3c0.2,0.3,0.4,0.5,0.4,0.8
			C370.5,129.8,370.4,129.6,370.2,129.3z M369.6,128.8C369.5,128.8,369.5,128.8,369.6,128.8C369.5,128.8,369.5,128.8,369.6,128.8z
			 M420.4,229.5C421,229.4,421.2,229.9,420.4,229.5L420.4,229.5z M528.6,88.7c0.1,0.1,0.2,0.2,0.2,0.3
			C528.8,88.9,528.7,88.8,528.6,88.7z M526.7,88.3C526.7,88.3,526.7,88.3,526.7,88.3C526.7,88.3,526.7,88.3,526.7,88.3z
			 M435.2,104.7c0-0.2,0-0.4,0.1-0.6C435.2,104.3,435.2,104.5,435.2,104.7c1,8.1,1.4,16.4,4.8,24c0.6,1.3,1.2,2.5,1.9,3.6
			c-0.7-1.2-1.4-2.4-1.9-3.6C436.6,121,436.2,112.8,435.2,104.7z M520.2,90.7c0,0.1-0.1,0.1-0.1,0.2c-4.1,18.6-14.7,43.3-34.1,50.1
			c-12.9,4.6-29,0-35.7-12.2c-4.6-8.2-5-17.6-6.1-26.7c0-0.1,0-0.1-0.1-0.2c0,0,0,0,0,0c-0.6-3.7-1.9-7.2-1.9-11.1
			c0-7.7,2.4-15.3,6.1-21.9c2.5-4.5,5.9-9.7,10.8-11.8c5.2-2.2,11.4-2.7,16.9-3.3c4.7-0.5,10.3-1.3,14.9-0.3c3.7,0.8,6.8,4,9.6,6.3
			c5,4.2,9.9,8.8,14.2,13.8c1.9,2.2,3.8,4.6,4.9,7.3c1.3,3.3,0.5,5.9,0.4,9.2C520.1,90.5,520.1,90.6,520.2,90.7
			c0.6-1.4,4-2.4,6.4-2.5C524.2,88.3,520.8,89.3,520.2,90.7z"/>
		<path class="st0" d="M500.3,83.6c-4.7-7.4-15.4-11-23.6-10.6c-9.6,0.4-22.3,5.2-26.8,14.5c-1.7,3.5-1.3,7.9-1.4,11.7
			c-0.1,6-0.1,12,0.3,18c0.2,3.7,5.5,3.8,7.9,1.8c11.8-5.5,25.7-6.6,38.4-4.2c2.4,0.5,5.6-1.1,6.1-3.7c1.2-6.9,1.2-13.9,0.6-21
			C501.5,87.9,501.5,85.6,500.3,83.6z M492.7,107.3c-11.7-1.3-24,0-35,4.1c-0.2-6.4-0.2-12.8,0.1-19.2C458.2,84,469,80.1,476,79.9
			c5.4-0.2,13.2,2.7,16.2,7.8c-0.1-0.1,0.1,0.5,0.1,1.1c0.2,2,0.5,4,0.6,5.9C493.2,98.9,493.1,103.1,492.7,107.3z"/>
	</g>
	<g>
		<path class="st1" d="M310.7,450.6c-0.2,2.6-0.3,5.4-0.5,8.2c-0.1,2.4-0.3,4.8-0.4,7.1c0,2.4-1.4,4-3,5.5c-0.8,0.8-1.7,1.5-2.3,2.3
			c-2.1,2.6-4.1,3.2-7.1,2c-3.8-1.5-5.6-4.4-5.2-8.7c0.3-2.7,0.8-5.3,1.2-8c0.3-2,0.3-4,0.7-5.9c0.9-5,2.1-10,2.9-15
			c0.6-3.9,0.9-7.9,1.5-11.8c0.5-3.5,1.1-7,1.6-10.6c0.6-4.6,1.9-9,2.9-13.5c1.3-5.9,2.4-12,2.3-18.2c0-2.4,0.5-4.7,0.7-7.1
			c0.3-2.8,0.5-5.5,0.8-8.3c0.6-4.8,0.8-9.7,0.7-14.5c0-2.3,1.1-3.6,3.3-4.4c1.2-0.5,2.3-1.1,3.4-1.7c2.6-1.4,5.2-1.2,7.9-0.3
			c0.8,0.3,1.6,1.1,2.1,1.8c2.2,3.1,4.3,6.3,6.4,9.5c0.9,1.3,1.6,2.6,1.7,4.3c0.1,1.6,1,3.1,1.6,4.7c1.1,2.9,2.4,5.7,3.3,8.7
			c2.1,7,4.6,13.9,7.6,20.5c0.7,1.4,0.9,3.1,1.5,4.5c1.2,2.6,1.5,5.5,3.6,7.7c0.7,0.7,1.4,1.8,1.4,2.7c0.1,2.3,1.6,3,3.3,3.8
			c1.1,0.5,2.1,1.1,3,1.8c1.2,1,1.5,2.4,1.1,3.9c-0.2,0.8-0.2,1.6-0.5,2.3c-0.5,1.6-0.4,3.2,0.3,4.7c2,4.3,4.1,8.6,6,12.9
			c0.8,1.8,1.3,3.7,2.1,5.5c1,2.2,2,4.3,3.2,6.3c1,1.5,1.4,2.9,1,4.7c-0.6,2.9-1.8,5.4-4.7,6.8c-0.6,0.3-1.2,0.8-1.7,1.3
			c-3,3-8.5,2.4-10.8-1.6c-1.7-3.1-2.4-6.3-3.1-9.7c-0.6-2.8-1.3-5.5-2.5-8.2c-0.9-1.9-1.4-4.1-1.9-6.1c-0.5-1.6-0.7-2-2.4-1.9
			c-2,0.1-4,0.4-5.9,0.6c-5.9,0.7-11.8,1.4-17.4,3.5c-1.3,0.5-2.5,1-3.8,1.5c-0.7,0.3-1.3,0.5-2,0.6
			C311.2,445.7,310.4,446.7,310.7,450.6 M315.3,422.8c0.8,0,1.5,0,2.3-0.1c0.9-0.1,1.7-0.3,2.6-0.4c2.3-0.3,4.6-0.6,6.8-1
			c2.7-0.5,5.4-1.2,8.2-1.7c2.3-0.4,3-1.2,2.1-3.4c-1.1-2.7-2.4-5.3-3.7-7.9c-2.4-4.4-5-8.7-6-13.7c-0.1-0.4-0.3-0.7-0.5-1.1
			c-1.3-2.8-2.9-5.5-3.2-8.7c0-0.3-0.3-0.5-0.8-1.1c-0.4,1-0.8,1.6-0.9,2.3c-0.5,2-0.6,4.1-1.3,6.1c-1.6,4.4-1.9,9-2.8,13.5
			c-0.8,4.1-0.7,8.4-2.3,12.4C315.1,419.4,314.6,421,315.3,422.8"/>
		<path class="st1" d="M471.2,470.4c-0.2-7.2-0.6-13.7-0.6-20.2c0-4.4-0.3-8.7-0.7-13c-0.3-3.8,0.1-7.6,0-11.4
			c0-1.9-0.5-3.8-0.7-5.6c-0.1-0.7-0.3-1.4-0.3-2.1c0.1-6,0.2-11.9,0.3-17.9c0.1-3.4,0.2-6.8,0.3-10.2c0-0.8,0-1.6-0.3-2.3
			c-0.8-1.8-0.8-3.7-1-5.6c-0.3-3.2-0.8-6.5-1.2-9.7c0-0.2-0.1-0.5-0.1-0.7c-0.4-4.3-1-8.5-1.2-12.8c-0.2-4,0.5-5.7,5.6-6.3
			c1.8-0.2,3.6-0.1,5.5-0.1c2.1,0,4.3-0.3,6.4-0.1c3.2,0.3,6.6,0.4,9.6,1.4c5.2,1.7,10.7,2.8,15.7,5.4c2.1,1.1,4.3,1.9,6.2,3.4
			c3,2.3,5.9,4.8,8.7,7.3c0.9,0.8,1.5,1.8,2.3,2.7c1.7,1.8,2.1,4.2,2.9,6.4c1.5,4,2.9,8.1,4.4,12.1c0.1,0.3,0.2,0.6,0.4,0.9
			c2.7,3.7,2.6,7.8,1.9,12.1c-0.4,2.7-0.4,5.4-0.5,8.1c0,0.6-0.1,1.1-0.2,1.6c-0.2,1.7-0.6,3.5-0.6,5.2c0,1.6-0.2,3-1.3,4.2
			c-0.4,0.5-0.6,1.3-0.8,2c-0.9,3.4-1.8,6.7-3.7,9.8c-1.5,2.6-2.6,5.4-4.1,8c-1,1.7-2.4,3.1-3.6,4.7c-0.2,0.2-0.5,0.5-0.6,0.7
			c-0.3,2-2,3-3.1,4.3c-0.9,1.2-1.7,2.5-2.3,3.8c-0.9,2.1-2.1,3.9-4.2,5c-0.6,0.3-1.1,0.8-1.7,1.3c-1.4,1.1-2.8,2.3-4.2,3.4
			c-0.5,0.4-1.1,0.9-1.6,1.4c-0.8,0.7-1.5,1.3-2.3,2c-0.3,0.3-0.7,0.4-0.9,0.7c-1.6,2.8-4.5,4.1-7.1,5.6c-1,0.6-2,1.2-2.1,2.7
			c-0.1,1.7-1.3,2.4-2.8,1.6c-1.8-1-3.5-0.7-5.3-0.1c-3.4,1.2-6.4,0.2-9.1-2c-1.1-0.9-1.9-2.1-1.9-3.7
			C471.4,472.9,471.3,471.3,471.2,470.4 M517.4,401.7c-0.6-5-0.8-9.3-1.8-13.5c-1.2-4.7-2.5-9.3-5.7-13.4c-3-3.8-6.8-5.5-10.9-7.3
			c-0.4-0.2-0.9-0.1-1.4-0.2c-1.3-0.2-2.6-0.5-4-0.7c-1.6-0.3-3.3-0.6-4.9-0.7c-1.3-0.1-2.7-0.1-4-0.2c-2.5-0.2-3.4,0.6-3.1,3.2
			c0.3,2.7,0.8,5.3,1.1,8c0.1,0.9,0.2,1.7,0.3,2.6c0.3,3.5,0.6,7,1,10.4c0.3,2.8,0.8,5.7,1.1,8.5c0.3,2.4,0.3,4.9,0.5,7.3
			c0.2,2.7,0.4,5.5,0.7,8.2c0.3,2.5-0.1,4.9-0.5,7.3c-0.4,2.4-0.5,4.9-0.7,7.3c-0.1,1.3,0,2.7,0.2,4c0.2,1.8,0.7,3.6,0.7,5.4
			c-0.2,6.3-0.2,12.6,0.8,18.8c0.1,0.9,0.1,1.9,1.2,2.1c0.6,0.1,1.3-0.4,1.8-0.8c4-3.3,8-6.6,12-9.8c0.3-0.2,0.6-0.6,0.8-0.9
			c1.4-1.7,2.7-3.3,4.1-5c0.9-1.1,1.9-2.2,2.4-3.5c1.8-4.5,4.1-8.8,4.8-13.7c0.3-1.9,1.2-3.6,1.7-5.4c0.4-1.4,0.7-2.9,1-4.4
			c0.2-0.9,0.1-1.9,0.2-2.9C516.9,408.6,517.2,404.8,517.4,401.7"/>
		<path class="st1" d="M397.8,407.1c-1,2.3-0.8,4.8-1,7.2c-0.1,1.6-0.2,3.2-0.3,4.7c-0.1,1.1-0.2,2.2-0.1,3.3
			c0.1,1.6,0.3,3.2-0.5,4.7c-0.2,0.3-0.2,0.8-0.1,1.2c0.2,5.5-0.7,10.9-0.6,16.4c0,0.8-0.3,1.6-0.4,2.3c-0.1,1-0.3,2.1-0.1,3
			c0.5,2.5-0.2,4.8-1.7,6.7c-2.7,3.6-6.7,4-10.2,1.3c-0.4-0.3-0.7-0.7-1.1-1c-3.4-2.5-2.7-6.3-2.9-9.7c-0.1-2.5,0.6-5.1-0.5-7.5
			c0-0.1,0-0.2,0-0.2c0-4.3-0.9-8.5-0.5-12.8c0.3-2.7-0.2-5.4-0.2-8.1c0-1.6,0.3-3.3,0.4-4.9c0.1-0.7,0-1.4,0.1-2.1
			c0.3-2,0.6-4.1,0.8-6.1c0.1-1.2,0.1-2.4,0.2-3.6c0.2-3.8,0.5-7.6,0.7-11.4c0.2-4.2,0.5-8.4,0.7-12.6c0-1.3-0.3-2.7-0.6-4
			c-0.3-1.1,0-1.9,0.9-2.7c3.2-3,6-3.5,9.6-0.8c3.7,2.8,7.2,5.8,10.4,9c1.9,1.9,3.1,4.6,4.6,6.9c0.3,0.5,0.5,1,0.9,1.4
			c1,1.2,1.6,2.7,2.4,4.1c1.8,3.2,4,6.1,6.1,9.1c0.3,0.5,0.9,0.8,1,1.3c0.7,2.3,2.3,3.9,3.8,5.7c0.6,0.7,0.9,1.6,1.4,2.4
			c1.5,2.5,3.1,5,4.7,7.4c0.4,0.6,1.3,1,2.4,1.8c0.2-1.6,0.4-2.7,0.4-3.7c0.1-1.8,0-3.6,0-5.5c0-3.1,0-6.2,0-9.3
			c0-2.9,0.1-5.9,0.3-8.8c0.3-4,0.7-8.1,1-12.1c0.1-0.7,0-1.5,0.3-2.1c0.4-0.9,0.8-2.2,1.5-2.6c2.4-1.1,2.9-3.2,3.2-5.4
			c0.2-1.7,0.6-3.5,2.4-4.1c2.1-0.7,4.4-1,6.5-0.1c1.1,0.5,1.8,1.3,1.9,2.6c0.1,1.1,0.2,2.2,0.3,3.3c0.4,5.7,0.8,11.4,1.2,17.1
			c0.4,5.1,0.5,10.1-0.2,15.2c-0.4,3.1-0.8,6.2-0.9,9.3c-0.1,2.7,0.3,5.4,0.4,8.1c0.1,2.1,0,4.3,0.3,6.4c0.5,3,1.1,6,1.3,9.2
			c0.2,3.9,1.1,7.9,1.7,11.8c0.2,1.7,0.4,3.3,0.7,5c0.4,2.5-0.6,4.4-2.4,5.9c-1.7,1.4-3.7,2.5-5.5,3.8c-0.2,0.1-0.5,0.2-0.7,0.2
			c-3.4-0.4-6.9-0.6-9.3-3.4c-1.3-1.5-2.6-3.3-3.4-5.1c-1.4-3.6-3.8-6.6-5.7-9.9c-0.7-1.2-1.3-2.3-2-3.5c-0.1-0.1-0.1-0.3-0.2-0.4
			c-2.3-2.3-2.9-5.6-4.7-8.2c-1.8-2.6-3.4-5.3-5.1-8c-0.3-0.5-0.4-1-0.7-1.5c-0.6-1.1-1.2-2.2-2-3.2c-1.3-1.8-2.9-3.4-4.1-5.2
			c-1.7-2.3-3.2-4.7-4.7-7.1c-0.3-0.5-0.7-1.1-1-1.6C398.3,406.7,398.1,406.9,397.8,407.1"/>
		<path class="st1" d="M418.7,542.6c4.1,0.6,9.2,1,14.1,2.2c7.6,1.9,15.1,4.4,22.6,6.7c0.7,0.2,1.4,0.7,2.1,1.1
			c2.8,1.7,5.5,3.6,8.4,5c7.8,3.6,13.8,9.5,20.2,14.8c7,5.8,11.1,13.6,13.8,22c1.4,4.2,2.3,8.9,0.3,13.4c-0.1,0.2-0.2,0.5-0.2,0.8
			c0,8.3-3.7,15.7-5.4,23.6c-0.6,2.7-0.8,5.4-0.9,8.2c-0.1,2.7-0.4,5.2-1.9,7.5c-0.9,1.4-1.3,3.1-2.1,4.6c-1.2,2.4-2.4,5-4,7.2
			c-2.7,3.7-5.3,7.5-8.6,10.6c-4.5,4.1-9.2,8.5-14.7,11c-7.3,3.4-14.5,7-22.3,9.7c-6.1,2.1-12.4,1.6-18.4,3.4c-3.2,1-6.5,2-9.5,3.3
			c-2.5,1.1-4.6,6-4.1,8.8c0.6,3.3,1.3,6.6,1.9,10c0.1,0.5,0,1.1,0.2,1.5c3.6,6,0.5,12.8,2.4,19.1c0.6,2,0,4.4-0.4,6.6
			c-0.2,1.1-0.7,2.3-1.4,3.1c-2.7,3.2-5.8,5.7-10.4,5.2c-0.6-0.1-1.3,0-2,0c-10.1,0-8.8,0-15.9-7.8c-1-1.1-1.4-3.1-1.5-4.7
			c-0.5-8.1-0.9-16.2-1.3-24.3c-0.4-9.8-0.6-19.6-1.2-29.4c-0.4-6.9-0.6-13.8-2-20.7c-0.9-4.5-0.7-9.1-1.2-13.7
			c-0.4-3.6-1-7.3-1.4-10.9c-0.6-5.6-1.1-11.2-1.7-16.8c-0.5-4.3-1.2-8.5-1.7-12.8c-0.4-3.8-0.7-7.6-1.1-11.3
			c-0.5-4.6-1-9.1-1.4-13.6c-0.3-3.3-0.4-6.5-0.8-9.8c-0.2-1.8-0.5-3.6-1.1-5.3c-1.2-3.6-1.1-7.2-0.9-10.9
			c0.4-5.3,6.7-10.2,10.8-11.1c8.9-1.8,17.7-3.7,26.6-5.1C407.7,542.8,412.7,542.9,418.7,542.6 M401.8,567.3v0.3
			c-2.1,0-4.2-0.1-6.3,0c-1.8,0.1-3.6,0.4-5.4,0.9c-2.5,0.7-2.8,1.3-2.6,4c0.3,3,0.6,6,0.8,9c0.3,3.8,0.2,7.6,0.8,11.3
			c1,6.1,2.4,12.1,3.7,18.1c0.6,2.7,1.3,5.3,1.7,8.1c0.4,2.7-0.1,5.6,0.6,8.2c1.1,3.8,2,7.5,2.9,11.3c1.1,4.7,2.9,9.2,3.3,14.1
			c0.2,2.1,0.7,4.1,1.4,6.1c0.8,2.4,1.2,4.7,0.8,7.3c-0.3,1.9,0.3,3.9,0.5,5.8c0.2,1.9,1.6,2.4,3.1,1.9c2-0.7,3.8-1.6,5.7-2.6
			c5.4-2.9,10.6-6.3,16.2-8.9c3.6-1.6,7.3-3.1,10.2-5.7c6.9-6.3,15.4-10.4,22.3-16.6c5.8-5.2,10.9-10.9,14.7-17.8
			c1.4-2.5,3-5.3,3.1-8c0.4-7.2,0.7-14.5-2.8-21.2c-1.2-2.3-2.5-4.6-3.5-7c-3.6-8.9-10.7-13.1-19.6-15.1c-4.1-0.9-8.3-1.7-12.2-3.1
			c-4.3-1.5-8.7-1.8-13.2-1.6c-2,0.1-4,0.3-5.9,0.1c-3.7-0.3-7.2,0-10.8,0.9C408.2,567.8,404.9,567.3,401.8,567.3"/>
		<path class="st1" d="M250.2,432.9c-4,0.8-8.1,1.5-12.1,2.2c-0.5,0.1-1.1,0.2-1.7,0.2c-3.1,0-5.9,1.3-8.8,2c-1.9,0.5-3.8,1-5.7,1.6
			c-2,0.6-2.2,0.9-2.4,2.8c-0.5,6.1-0.8,12.2-0.3,18.3c0.1,0.6,0,1.3,0.3,1.9c1.1,3,0.1,5.6-1.6,8.1c-1.1,1.5-2.3,2.9-4.3,3
			c-0.5,0-1,0.4-1.6,0.6c-4.2,2-9.8-1.5-9.7-6.1c0-2,0.1-4,0.1-6c0-1.4-0.1-2.9-0.1-4.3c0-1.7,0-3.5,0.1-5.2
			c0.1-3.6,0.3-7.1,0.4-10.7c0.1-2.1,0-4.1-0.1-6.2c-0.1-3-0.4-6-0.4-9c-0.1-2.1,0.1-4.3,0.1-6.4c0-2.1-0.3-4.1-0.3-6.2
			c0-2.7,0.2-5.4,0.3-8.1c0.1-5.1,0.5-10.1-0.7-15.2c-0.4-1.7-0.4-3.7,0.1-5.4c0.7-2.7,0.9-5.3,0.7-8c-0.3-4.7,1.2-6.2,5.9-6.1
			c1.3,0,2.7,0,4,0.3c3.3,0.9,4.3,3.9,5.5,6.7c1.6,4,1.2,8.3,1.4,12.5c0.1,1.7,0.2,3.5,0.3,5.2c0.6,7.1,1.2,14.1,0.5,21.2
			c-0.2,2.4,0.9,3.4,3,2.9c3.2-0.8,6.5-1.4,9.7-2.2c4.5-1.1,9.3-1.2,13.7-3.1c0.4-0.2,1.1,0,1.6,0.1c2.3,0.5,4.6,0.7,6.8,0
			c1.7-0.5,2.4-1.4,2.4-3.1c0-1.7-0.1-3.3-0.2-5c-0.2-2.9-0.3-5.9-0.7-8.8c-0.3-2.4-1-4.7-1.3-7c-0.2-1.6-0.3-3.3-0.1-5
			c0.3-3,0.7-6,1.1-9c0.2-1.7,0.6-3.3,1.9-4.6c2.1-2.2,4.9-2.2,7.4,0.2c1.7,1.7,2.9,4,4.2,6c0.2,0.4,0.2,0.9,0.2,1.4
			c-0.1,3.7-0.1,7.5-0.3,11.2c-0.1,2,0,3.9,0.6,5.9c0.6,1.9,0.8,3.9,1.1,5.9c0.4,3.9,0.7,7.8,1,11.6c0.1,1.3,0.3,2.5,1.2,3.6
			c1.1,1.4,1.6,3,1.2,4.9c-0.4,2.2-0.2,4.4-0.4,6.7c-0.3,3.3,0,6.5,0.5,9.7c0.4,2.3,0.5,4.7,0.8,7.1c0.1,0.9,0.4,1.9,0.2,2.8
			c-0.3,1.8,0,3.4,0.8,5c0.5,1.1,0.2,2.5,0.1,3.7c-0.2,1.8-0.2,3.6,0.4,5.4c0.7,2-0.4,3.8-1.3,5.4c-1.4,2.5-3.8,3.6-6.7,3.3
			c-3.1-0.3-5.7-1.4-7.2-4.3c-1-2-1.6-4.1-1.7-6.4c-0.1-1.8-0.2-3.7-0.7-5.4c-0.9-3.6-0.7-7.3-0.8-10.9c-0.1-3.2-0.5-6.3-1-9.5
			c-0.3-1.9-1.1-2.3-3-2.2c-1.4,0-2.9,0.1-4.3,0.2C250.3,433.1,250.2,433,250.2,432.9"/>
		<path class="st1" d="M583.7,429.9c-0.7-3.7-1.3-7.3-2-11c0-0.2-0.1-0.5-0.2-0.7c-1.3-2.4-2.6-4.7-3.9-7.1
			c-0.9-1.7-1.9-3.3-2.9-4.9c-0.4-0.6-0.8-1.2-1.3-1.7c-2-2.6-4.2-5.2-6.1-7.9c-2.7-3.7-5.4-7.4-7.8-11.4c-1.3-2.2-2-4.8-2.9-7.3
			c-0.3-0.9-0.4-1.9-0.7-2.8c-1.4-5.4-0.5-10.4,2.9-14.9c1-1.3,1.6-2.8,1.9-4.5c0.8-3.9,3.1-6.6,7-7.6c2.9-0.8,5.8-1.8,8.9-1.5
			c2.2,0.2,4.4,0.3,6.6,0.8c1.9,0.4,3.2,2,4.5,3.4c1,1.1,2,2.2,3,3.3c1.3,1.6,2.9,3,3.9,4.8c1.6,2.8,0.7,5-2.3,6.3
			c-0.6,0.3-1.2,0.5-1.8,0.7c-1.5,0.7-3,0.8-4.3-0.3c-1.5-1.1-3.1-1.3-4.9-1.2c-1.7,0-3.5-0.5-5.2-0.7c-1.9-0.3-2.3-0.2-3,1.5
			c-0.5,1.1-0.8,2.4-0.8,3.7c0.1,3.3,1.2,6.2,3.3,8.7c0.7,0.8,1.2,1.8,1.6,2.9c0.7,1.9,2.1,3.3,3.5,4.8c1.3,1.4,2.5,2.8,3.8,4.3
			c0.5,0.5,0.9,1.1,1.4,1.6c1.9,2.2,3.9,4.4,5.8,6.7c1.6,2,3.2,3.9,4.7,6c1.8,2.6,3.8,5.1,5,8.1c0.4,1,1.3,1.8,2.1,2.5
			c0.9,0.9,1.5,1.7,1.5,3.1c0,1.1,0.3,2.2,0.6,3.2c0.6,2.6,1.3,5.1,1.7,7.7c0.2,1.4-0.2,3-0.4,4.5c-0.4,3.8-1.2,7.6-1.3,11.4
			c-0.1,4.5-2.4,8.2-3.5,12.3c-0.6,2.6-1.4,5.1-3,7.2c-0.4,0.6-0.9,1.1-1.3,1.7c-0.2,0.2-0.5,0.4-0.7,0.6c-2.2,2.6-4.3,5.2-6.5,7.9
			c-1.1,1.4-2.2,2.8-3.2,4.1c-0.1,0.2-0.3,0.4-0.5,0.5c-3.3,1.2-5.4,4.5-9.1,5c-1.6,1.6-4,1.3-5.7,2.6c-0.7,0.5-1.8,0.5-2.7,0.7
			c-1.4,0.3-2.9,0.3-4.2,0.8c-1.3,0.4-2.6,0.3-4,0.3c-2.7-0.1-4.8-1.4-6.9-2.9c-2.4-1.7-4.8-3.4-7.2-5c-1-0.7-2.2-1.2-3.4-1.6
			c-2.5-0.8-4.5-2.2-6.3-4.1c-2.2-2.4-2.4-4.8-0.8-7.6c0.6-1.1,0.9-2.4,1.1-3.6c0.6-4.1,2.7-5.1,6.4-3.8c1.7,0.6,3.3,1.5,4.9,2.3
			c1.1,0.5,1.6,1.4,2,2.5c0.6,2,2.3,3,3.9,4c3.8,2.5,9.3,1.9,12.9-1.1c2-1.7,4.3-3,5.7-5.3c1.1-1.8,2.3-3.6,3.5-5.4
			c1.9-2.8,3.6-5.7,4.2-9C582.1,441.8,584.7,436.1,583.7,429.9"/>
		<path class="st1" d="M317.9,584.7c0.6,5.6,1.2,11.1,1.7,16.7c0.2,2.6,0.4,5.2,0.4,7.8c0,7.3,2.3,14.2,2.8,21.4
			c0.6,7.8,1.4,15.5,0.8,23.4c-0.5,7.6-0.5,15.2-1.9,22.7c-0.9,4.8-1.8,9.5-4,13.9c-0.3,0.6-0.8,1.2-0.8,1.8c0,5.7-4,8.8-7.8,12
			c-2.1,1.8-4.3,3.3-5,6.3c-0.3,1.1-1.4,2.2-2.4,3c-3.4,2.9-7,5.4-11.5,6.6c-0.7,0.2-1.5,0.6-2.1,1.1c-1.8,1.5-3.9,2.2-6.2,2.1
			c-2.3,0-4.4,0.6-6.2,2.1c-1.5,1.3-3.3,1.6-5.2,1.1c-5.1-1.3-10.3-0.3-15.4-0.3c-1.2,0-2.6-0.2-3.7-0.7c-5.3-2.3-10-5.6-14.4-9.4
			c-3.2-2.7-6.5-5.4-9.3-8.5c-2.9-3.2-5.4-6.7-7.7-10.3c-3.7-5.6-7.2-11.2-10.5-17c-1.3-2.2-1.6-5-2.4-7.4
			c-4.6-13.7-7.1-27.9-10.2-41.9c-1.7-7.9-2.2-16-3.1-24.1c-0.8-7.2-1.5-14.3-1.2-21.5c0.2-5.1,0.4-10.2,0.6-15.3
			c0-0.3-0.1-0.6,0-0.8c1.6-3.7,2.9-7.5,4.8-11c1.4-2.5,4.4-2.9,7-2.4c6.2,1.2,10.4,4.9,12.3,10.9c0.8,2.5,0.9,5.1,1,7.8
			c0.3,5.6,0.5,11.2,0.8,16.8c0,0.4,0.1,0.8,0,1.2c-0.8,7.5,0.4,14.8,2.8,21.9c1.9,5.7,4.7,11.2,6.1,17c1.9,8,6.7,14.8,8.2,22.8
			c0.2,1,0.8,2,1.5,2.7c1.6,1.7,1.9,3.9,2.9,5.8c2.7,5.5,4,11.5,8,16.4c2.8,3.5,6.5,5.6,9.7,8.4c0.7,0.6,1.5,1,2.1,1.7
			c1.9,2,4.2,3.3,6.9,3.4c3.8,0.2,7.6,0.2,11.3-0.1c1.4-0.1,3-1.1,4.2-2.1c5.7-4.8,10.3-10.4,12.6-17.7c1.1-3.5,3.1-6.7,2.3-10.5
			c2.8-4.6,1.4-9.7,2.1-14.6c0.1-1,0-2.1,0-3.1c-0.6-9-1.2-18-1.9-27c-0.1-0.8,0-1.6-0.3-2.3c-1.7-4-1.1-8.2-1.4-12.4
			c-0.3-4.8-1-9.6-1.9-14.4c-1-5.5-2.4-11-2.1-16.7c0.1-2.1-0.7-4.4-1.2-6.5c-1-3.8-1.9-7.4,1.9-10.3c0.7-0.5,1-1.8,1.3-2.7
			c2-6.4,6.5-8.6,12-5.5c4.9,2.7,8.8,6.2,9.4,12.2c0.9,8.5,1.9,16.9,2.8,25.4C318.4,584.7,318.1,584.7,317.9,584.7"/>
		<path class="st1" d="M588.4,564.6c-0.1,2.4-0.2,6.1-0.4,9.8c0,0.2,0,0.4,0,0.7c0.3,5.6,0.6,11.2,0.8,16.9c0.1,1.6,0,3.3,0,4.9
			c0,1.2-0.2,2.5,0.1,3.6c1.6,5.9,1.4,12,1.7,18.1c0.1,1.4,0.2,2.9,0.3,4.3c0.5,4.6,1.1,9.2,1.6,13.8c0.5,4.6,1.2,9.2,0.4,13.9
			c1.7,4.2,0.1,8.5,0.7,12.8c0.4,3-0.1,6.1-0.3,9.2c-0.2,4.1-0.5,8.1-0.7,12.2c-0.1,2,0,4-0.3,5.9c-0.5,3-4.1,5.5-7.1,5.4
			c-0.2,0-0.5,0-0.6-0.1c-2.5-2.1-5.7-3.1-7.6-6.2c-2.7-4.6-4.1-9.4-4-14.8c0.1-2.4-0.8-4.8-1.1-7.2c-0.9-8.2-1.7-16.5-2.7-24.7
			c-0.8-6.7-2-13.3-2.8-20c-0.6-5.6-0.8-11.2-1.2-16.9c-0.1-1.1,0.1-2.3-0.1-3.3c-1.7-6.4-0.9-13-1.2-19.5
			c-0.3-6.6-0.4-13.2-0.9-19.8c-0.6-7.8-1.6-15.6-2.3-23.4c-0.2-1.9-0.2-3.8,0.1-5.6c0.3-2.5,1.7-3.4,4.1-3.2c1.3,0.1,2.6,0.1,3.9,0
			c3.8-0.4,7.1,0.7,10.4,2.6c6,3.4,7.3,9.1,8,15.1C587.9,553.7,588,558.5,588.4,564.6"/>
		<path class="st1" d="M588.6,744.3c-3.8-0.1-5.2-0.7-7.3-4.8c-0.7-1.4-0.9-3.2-1.4-4.7c-0.5-1.8-0.9-3.6-1.4-5.4
			c-1.1-4.2-0.9-8,2.5-11.3c3.2-3.1,7-3.5,11.1-2.2c1,0.3,1.9,1.1,2.8,1.7c1.2,0.9,2.4,1.9,3.5,2.9c0.5,0.4,1.1,0.9,1.3,1.4
			c0.9,3.1,1.9,6.1,0.6,9.4c-0.3,0.7-0.8,1.5-0.8,2.2c0.1,4.4-2.8,7-5.7,9.3C592.5,743.8,590.4,743.8,588.6,744.3"/>
	</g>
</g>
</svg>
