<?xml version="1.0" encoding="utf-8"?>
<!-- Generator: Adobe Illustrator 21.1.0, SVG Export Plug-In . SVG Version: 6.00 Build 0)  -->
<svg version="1.1" id="Calque_1" xmlns="http://www.w3.org/2000/svg" xmlns:xlink="http://www.w3.org/1999/xlink" x="0px" y="0px"
	 viewBox="0 0 200 200" style="enable-background:new 0 0 200 200;" xml:space="preserve">
<style type="text/css">
	.st0{fill:#FFF5F0;}
	.st1{clip-path:url(#SVGID_2_);}
	.st2{fill:#FFEB00;}
	.st3{fill:#FFFFFF;}
	.st4{fill:#660036;}
	.st5{fill:#ABF5FF;}
	.st6{clip-path:url(#SVGID_4_);}
	.st7{fill:#E03E00;}
	.st8{fill:#282856;}
	.st9{clip-path:url(#SVGID_6_);}
	.st10{fill:#32FFA6;}
</style>
<g>
	<ellipse transform="matrix(0.6034 -0.7975 0.7975 0.6034 -35.7229 127.225)" class="st0" cx="110" cy="99.5" rx="61.8" ry="61.8"/>
	<g>
		<defs>
			
				<ellipse id="SVGID_1_" transform="matrix(0.9999 -1.447860e-02 1.447860e-02 0.9999 -1.3221 1.4595)" cx="100.1" cy="92" rx="61.8" ry="61.8"/>
		</defs>
		<clipPath id="SVGID_2_">
			<use xlink:href="#SVGID_1_"  style="overflow:visible;"/>
		</clipPath>
		<g class="st1">
			<g>
				<path class="st2" d="M10.1,59.6c10.8-5.4,21.7-10.5,32.7-15.4c5.5-2.5,11-4.9,16.5-7.3L76,29.8l16.7-6.9
					c5.6-2.2,11.2-4.5,16.8-6.6c11.2-4.4,22.5-8.6,34-12.4c-10.8,5.4-21.7,10.5-32.7,15.4c-5.5,2.5-11,4.9-16.5,7.3l-16.6,7.1
					l-16.7,6.9c-5.6,2.2-11.2,4.5-16.8,6.6C32.8,51.5,21.6,55.7,10.1,59.6z"/>
			</g>
			<g>
				<path class="st2" d="M13.4,67.5C24.2,62,35.1,57,46.1,52c5.5-2.5,11-4.9,16.5-7.3l16.6-7.1L96,30.8c5.6-2.2,11.2-4.5,16.8-6.6
					c11.2-4.4,22.5-8.6,34-12.4c-10.8,5.4-21.7,10.5-32.7,15.4c-5.5,2.5-11,4.9-16.5,7.3l-16.6,7.1l-16.7,6.9
					C58.6,50.6,53,52.9,47.4,55C36.2,59.4,24.9,63.6,13.4,67.5z"/>
			</g>
			<g>
				<path class="st2" d="M16.7,75.4C27.5,70,38.5,64.9,49.5,60c5.5-2.5,11-4.9,16.5-7.3l16.6-7.1l16.7-6.9
					c5.6-2.2,11.2-4.5,16.8-6.6c11.2-4.4,22.5-8.6,34-12.4c-10.8,5.4-21.7,10.5-32.7,15.4c-5.5,2.5-11,4.9-16.5,7.3l-16.6,7.1
					l-16.7,6.9c-5.6,2.2-11.2,4.5-16.8,6.6C39.5,67.3,28.2,71.6,16.7,75.4z"/>
			</g>
			<g>
				<path class="st2" d="M20,83.3c10.8-5.4,21.7-10.5,32.7-15.4c5.5-2.5,11-4.9,16.5-7.3l16.6-7.1l16.7-6.9
					c5.6-2.2,11.2-4.5,16.8-6.6c11.2-4.4,22.5-8.6,34-12.4C142.7,33,131.7,38.1,120.7,43c-5.5,2.5-11,4.9-16.5,7.3l-16.6,7.1
					l-16.7,6.9c-5.6,2.2-11.2,4.5-16.8,6.6C42.8,75.2,31.5,79.5,20,83.3z"/>
			</g>
			<g>
				<path class="st2" d="M23.3,91.3c10.8-5.4,21.7-10.5,32.7-15.4c5.5-2.5,11-4.9,16.5-7.3l16.6-7.1l16.7-6.9
					c5.6-2.2,11.2-4.5,16.8-6.6c11.2-4.4,22.5-8.6,34-12.4C146,41,135,46,124,50.9c-5.5,2.5-11,4.9-16.5,7.3l-16.6,7.1l-16.7,6.9
					c-5.6,2.2-11.2,4.5-16.8,6.6C46.1,83.2,34.8,87.4,23.3,91.3z"/>
			</g>
			<g>
				<path class="st2" d="M26.7,99.2c10.8-5.4,21.7-10.5,32.7-15.4c5.5-2.5,11-4.9,16.5-7.3l16.6-7.1l16.7-6.9
					c5.6-2.2,11.2-4.5,16.8-6.6c11.2-4.4,22.5-8.6,34-12.4c-10.8,5.4-21.7,10.5-32.7,15.4c-5.5,2.5-11,4.9-16.5,7.3l-16.6,7.1
					l-16.7,6.9c-5.6,2.2-11.2,4.5-16.8,6.6C49.4,91.1,38.1,95.3,26.7,99.2z"/>
			</g>
			<g>
				<path class="st2" d="M30,107.1c10.8-5.4,21.7-10.5,32.7-15.4c5.5-2.5,11-4.9,16.5-7.3l16.6-7.1l16.7-6.9
					c5.6-2.2,11.2-4.5,16.8-6.6c11.2-4.4,22.5-8.6,34-12.4c-10.8,5.4-21.7,10.5-32.7,15.4c-5.5,2.5-11,4.9-16.5,7.3l-16.6,7.1
					L80.8,88c-5.6,2.2-11.2,4.5-16.8,6.6C52.7,99,41.4,103.2,30,107.1z"/>
			</g>
			<g>
				<path class="st2" d="M33.3,115C44.1,109.6,55,104.5,66,99.6c5.5-2.5,11-4.9,16.5-7.3l16.6-7.1l16.7-6.9
					c5.6-2.2,11.2-4.5,16.8-6.6c11.2-4.4,22.5-8.6,34-12.4C155.9,64.7,145,69.8,134,74.7c-5.5,2.5-11,4.9-16.5,7.3l-16.6,7.1
					l-16.7,6.9c-5.6,2.2-11.2,4.5-16.8,6.6C56,106.9,44.7,111.2,33.3,115z"/>
			</g>
			<g>
				<path class="st2" d="M36.6,122.9c10.8-5.4,21.7-10.5,32.7-15.4c5.5-2.5,11-4.9,16.5-7.3l16.6-7.1l16.7-6.9
					c5.6-2.2,11.2-4.5,16.8-6.6c11.2-4.4,22.5-8.6,34-12.4c-10.8,5.4-21.7,10.5-32.7,15.4c-5.5,2.5-11,4.9-16.5,7.3L104.1,97
					l-16.7,6.9c-5.6,2.2-11.2,4.5-16.8,6.6C59.3,114.9,48,119.1,36.6,122.9z"/>
			</g>
			<g>
				<path class="st2" d="M39.9,130.9c10.8-5.4,21.7-10.5,32.7-15.4c5.5-2.5,11-4.9,16.5-7.3l16.6-7.1l16.7-6.9
					c5.6-2.2,11.2-4.5,16.8-6.6c11.2-4.4,22.5-8.6,34-12.4c-10.8,5.4-21.7,10.5-32.7,15.4c-5.5,2.5-11,4.9-16.5,7.3l-16.6,7.1
					l-16.7,6.9c-5.6,2.2-11.2,4.5-16.8,6.6C62.6,122.8,51.3,127,39.9,130.9z"/>
			</g>
			<g>
				<path class="st2" d="M43.2,138.8c10.8-5.4,21.7-10.5,32.7-15.4c5.5-2.5,11-4.9,16.5-7.3l16.6-7.1l16.7-6.9
					c5.6-2.2,11.2-4.5,16.8-6.6c11.2-4.4,22.5-8.6,34-12.4c-10.8,5.4-21.7,10.5-32.7,15.4c-5.5,2.5-11,4.9-16.5,7.3l-16.6,7.1
					L94,119.7c-5.6,2.2-11.2,4.5-16.8,6.6C66,130.7,54.7,134.9,43.2,138.8z"/>
			</g>
			<g>
				<path class="st2" d="M46.5,146.7c10.8-5.4,21.7-10.5,32.7-15.4c5.5-2.5,11-4.9,16.5-7.3l16.6-7.1l16.7-6.9
					c5.6-2.2,11.2-4.5,16.8-6.6c11.2-4.4,22.5-8.6,34-12.4c-10.8,5.4-21.7,10.5-32.7,15.4c-5.5,2.5-11,4.9-16.5,7.3l-16.6,7.1
					l-16.7,6.9c-5.6,2.2-11.2,4.5-16.8,6.6C69.3,138.6,58,142.9,46.5,146.7z"/>
			</g>
			<g>
				<path class="st2" d="M49.8,154.6c10.8-5.4,21.7-10.5,32.7-15.4c5.5-2.5,11-4.9,16.5-7.3l16.6-7.1l16.7-6.9
					c5.6-2.2,11.2-4.5,16.8-6.6c11.2-4.4,22.5-8.6,34-12.4c-10.8,5.4-21.7,10.5-32.7,15.4c-5.5,2.5-11,4.9-16.5,7.3l-16.6,7.1
					l-16.7,6.9c-5.6,2.2-11.2,4.5-16.8,6.6C72.6,146.6,61.3,150.8,49.8,154.6z"/>
			</g>
			<g>
				<path class="st2" d="M53.1,162.6c10.8-5.4,21.7-10.5,32.7-15.4c5.5-2.5,11-4.9,16.5-7.3l16.6-7.1l16.7-6.9
					c5.6-2.2,11.2-4.5,16.8-6.6c11.2-4.4,22.5-8.6,34-12.4c-10.8,5.4-21.7,10.5-32.7,15.4c-5.5,2.5-11,4.9-16.5,7.3l-16.6,7.1
					l-16.7,6.9c-5.6,2.2-11.2,4.5-16.8,6.6C75.9,154.5,64.6,158.7,53.1,162.6z"/>
			</g>
			<g>
				<path class="st2" d="M56.4,170.5c10.8-5.4,21.7-10.5,32.7-15.4c5.5-2.5,11-4.9,16.5-7.3l16.6-7.1l16.7-6.9
					c5.6-2.2,11.2-4.5,16.8-6.6c11.2-4.4,22.5-8.6,34-12.4c-10.8,5.4-21.7,10.5-32.7,15.4c-5.5,2.5-11,4.9-16.5,7.3l-16.6,7.1
					l-16.7,6.9c-5.6,2.2-11.2,4.5-16.8,6.6C79.2,162.4,67.9,166.6,56.4,170.5z"/>
			</g>
			<g>
				<path class="st2" d="M59.8,178.4c10.8-5.4,21.7-10.5,32.7-15.4c5.5-2.5,11-4.9,16.5-7.3l16.6-7.1l16.7-6.9
					c5.6-2.2,11.2-4.5,16.8-6.6c11.2-4.4,22.5-8.6,34-12.4c-10.8,5.4-21.7,10.5-32.7,15.4c-5.5,2.5-11,4.9-16.5,7.3l-16.6,7.1
					l-16.7,6.9c-5.6,2.2-11.2,4.5-16.8,6.6C82.5,170.3,71.2,174.6,59.8,178.4z"/>
			</g>
			<g>
				<path class="st2" d="M63.1,186.3c10.8-5.4,21.7-10.5,32.7-15.4c5.5-2.5,11-4.9,16.5-7.3l16.6-7.1l16.7-6.9
					c5.6-2.2,11.2-4.5,16.8-6.6c11.2-4.4,22.5-8.6,34-12.4c-10.8,5.4-21.7,10.5-32.7,15.4c-5.5,2.5-11,4.9-16.5,7.3l-16.6,7.1
					l-16.7,6.9c-5.6,2.2-11.2,4.5-16.8,6.6C85.8,178.3,74.5,182.5,63.1,186.3z"/>
			</g>
		</g>
	</g>
	<g>
		<g>
			<path class="st3" d="M80.4,137.4c1.5,0.4,6.5,15.4,9.6,24.1c0,0.1,0,0.1,0.1,0.2c3.6,10.3,10.9,5.9,9.3-1
				c-1.3-5.5-3.1-9.6-4.9-14.5c-1.3-3.7-4.2-12.1-2.8-17.1c1.5,0,9,7.3,14.4,14.9c2.6,3.6,4.1,4.7,5.4,5.1c1.1,0.3,2.3-0.4,2.7-1.5
				c3.2-10.6-4.4-12.8-8-19.5c-1.9-3.4-7.2-10.8-7.2-15.9S94.7,101,87.6,97.4c-7.2-3.6-14.4,1.5-18.5,4.6c-4.1,3.1-8.2,2.1-14.4,2.1
				s-10.2,6.2-13.3,8.7c-4.9,4-14.8,9.7-23.1,9.7c-3.6,0-6.6,2.5-6.6,2.5c-2.9,2.2-4.3,5-4.2,8.8c0.2,3.9,3,3.4,4.3,2.9
				s3.1-2.3,5.3-2.9c11-3.6,17.7-4.1,23.8-1.5c3.4,1.4,9.2,3.6,9.2,9.2s0,23.5,0.5,27.7c0.5,4.1,0,15.4,5.6,15.4
				c5.8,0,4.1-12.3,4.1-13.8c0-1.5-1-28.2,3.6-30.2c3-1.3,2.1,5.1,3.1,10.8c1,5.6,5.1,25.6,12.8,24.1c3.5-0.7,2.3-7.7,2.1-9.2
				c-0.5-3.1-3.1-19.5-3.6-22C77.9,142.1,77.3,136.4,80.4,137.4"/>
			<path class="st4" d="M80.4,137.3c0.5,0.2,0.6,0.6,0.9,1c0.2,0.3,0.4,0.7,0.6,1.1c0.4,0.7,0.7,1.4,1.1,2.2c0.7,1.5,1.3,3,1.9,4.4
				c1.2,3,2.3,6,3.4,9l1.7,4.5c0.6,1.5,1.1,3,1.8,4.3c0.7,1.3,1.7,2.6,2.9,3c0.6,0.3,1.2,0.2,1.7,0.1c0.5-0.2,1-0.6,1.4-1.2
				c0.7-1.1,0.9-2.6,0.7-4c-0.1-0.7-0.3-1.5-0.5-2.2c-0.2-0.8-0.4-1.5-0.7-2.3c-1-3-2.2-5.9-3.3-9c-1.2-3-2.2-6.1-3-9.3
				c-0.4-1.6-0.7-3.2-0.8-4.9c-0.1-1.7-0.1-3.4,0.3-5.2l0.3-1l0.9,0.1c0.3,0,0.6,0.1,0.9,0.2l0.5,0.2c0.3,0.2,0.5,0.3,0.8,0.5
				c0.5,0.3,0.9,0.7,1.3,1.1c0.9,0.7,1.7,1.5,2.4,2.2c1.6,1.5,3,3.1,4.5,4.8c1.4,1.6,2.8,3.3,4.1,5.1l1,1.3c0.3,0.4,0.6,0.8,0.9,1.2
				c0.6,0.8,1.3,1.6,2,2.2c0.3,0.3,0.7,0.6,1,0.8c0.3,0.2,0.7,0.3,0.9,0.3c0.2,0,0.4-0.1,0.6-0.2c0.1-0.1,0.1-0.2,0.2-0.2
				c0,0,0-0.1,0.1-0.1l0.1-0.4c0.6-1.9,0.8-3.9,0.5-5.7c-0.4-1.8-1.3-3.5-2.6-5.1c-1.3-1.6-2.8-3.1-4.2-5c-0.3-0.5-0.7-0.9-0.9-1.4
				c-0.3-0.5-0.6-1-0.8-1.4c-0.5-0.9-1-1.8-1.6-2.7c-1.1-1.9-2.2-3.7-3.1-5.7c-0.9-2-1.8-4.1-2.1-6.4c-0.1-1.3,0-2.1-0.2-3.1
				c-0.2-1-0.5-1.9-0.9-2.9c-0.8-1.8-2.1-3.5-3.5-5c-1.4-1.5-3.1-2.8-4.9-3.8c-1.8-1.1-3.7-1.8-5.8-1.8c-2-0.1-4.1,0.4-6,1.2
				c-1.9,0.8-3.7,1.9-5.5,3.1c-0.9,0.6-1.7,1.3-2.6,1.9c-0.9,0.6-2,1-3.1,1.3c-2.2,0.5-4.4,0.4-6.5,0.4c-1.1,0-2.1-0.1-3.2-0.1
				c-1.1,0-2.1,0-3.1,0.3c-1,0.3-1.9,0.7-2.8,1.2c-0.9,0.5-1.7,1.2-2.5,1.8c-1.6,1.4-3,3-4.6,4.5c-3.3,2.9-6.9,5.2-10.8,7.2
				c-3.9,1.9-8,3.4-12.5,3.8l-1.6,0.1c-0.5,0.1-1,0.1-1.4,0.3c-0.9,0.3-1.9,0.7-2.7,1.2c-1.7,1-3.2,2.4-4.1,4.1
				c-0.4,0.8-0.7,1.8-0.9,2.7c-0.1,0.5-0.1,1-0.1,1.5c0,0.5,0,1,0.1,1.4c0.1,0.4,0.2,0.8,0.4,1c0.2,0.2,0.4,0.3,0.7,0.4
				c0.3,0.1,0.7,0,1.1-0.1c0.4-0.1,0.7-0.3,1.2-0.5c0.8-0.5,1.7-1.2,2.7-1.8c0.5-0.3,1-0.6,1.6-0.8c0.6-0.2,1.1-0.3,1.6-0.5
				c2.1-0.7,4.1-1.3,6.3-1.8c4.2-1,8.8-1.6,13.3-0.7c1.1,0.2,2.2,0.5,3.3,1c0.6,0.2,1,0.4,1.5,0.6c0.5,0.2,1,0.4,1.5,0.7
				c2,0.9,4.1,2.1,5.7,4c0.8,1,1.4,2.1,1.7,3.4c0.1,0.3,0.1,0.6,0.2,0.9l0.1,1c0,0.6,0,1.1,0,1.6l0,6.4c0,4.3,0.1,8.6,0.2,12.8
				c0.1,2.1,0.1,4.3,0.3,6.3c0.3,2.2,0.3,4.4,0.5,6.4c0.2,2.1,0.5,4.1,1.2,5.8c0.3,0.8,0.8,1.5,1.3,1.9c0.2,0.2,0.5,0.3,0.8,0.3
				c0.3,0,0.6,0,0.9,0c0.5-0.2,0.9-0.5,1.3-1.3c0.3-0.7,0.6-1.7,0.7-2.6c0.3-1.9,0.2-4,0.1-6.1l-0.1-1.6c0-0.7,0-1.1,0-1.7l0-3.2
				c0-2.2,0-4.3,0-6.5c0.1-4.3,0.3-8.6,1-13c0.2-1.1,0.4-2.2,0.7-3.3c0.4-1.1,0.7-2.2,1.6-3.4c0.3-0.3,0.5-0.6,1-0.8
				c0.2-0.1,0.4-0.2,0.6-0.3c0.2-0.1,0.4-0.1,0.7-0.2c0.5-0.1,1.3,0.1,1.7,0.5c0.5,0.4,0.7,0.8,0.8,1.2c0.3,0.7,0.4,1.3,0.5,1.9
				c0.1,0.6,0.1,1.1,0.2,1.7c0.2,2.2,0.2,4.3,0.5,6.3c0.3,2,0.8,4.2,1.2,6.2c1,4.1,2.1,8.2,3.9,12c0.9,1.8,2,3.7,3.4,4.9
				c0.7,0.6,1.5,0.9,2.4,1c0.9,0,1.4-0.3,1.8-1c0.4-0.7,0.5-1.8,0.6-2.7c0-1,0-2-0.1-3.1c-0.3-2.1-0.6-4.2-0.9-6.3l-1.8-12.7
				l-0.5-3.2c-0.1-1.1-0.3-2.1-0.4-3.2c-0.1-1.1-0.1-2.2,0.2-3.3c0.1-0.5,0.3-1.1,0.8-1.5C79.2,137,79.9,137.1,80.4,137.3l-0.1,0.3
				c-0.5-0.1-1-0.1-1.3,0.2c-0.3,0.3-0.5,0.8-0.6,1.3c-0.2,1-0.1,2.1,0,3.1c0.1,1,0.4,2.1,0.5,3.1l0.6,3.2l2.3,12.6
				c0.4,2.1,0.8,4.2,1.1,6.4c0.2,1.1,0.2,2.2,0.2,3.3c0,1.1-0.1,2.3-0.7,3.5c-0.3,0.6-0.7,1.2-1.4,1.5c-0.3,0.2-0.7,0.3-1,0.4
				c-0.3,0-0.6,0.1-1,0.1c-1.3,0-2.6-0.5-3.5-1.3c-1.9-1.5-3.1-3.5-4.1-5.4c-2-4-3.2-8.2-4.3-12.3c-0.5-2.1-1-4.2-1.4-6.4
				c-0.4-2.2-0.5-4.4-0.7-6.5c-0.1-1-0.2-2.1-0.5-2.7c-0.1-0.1-0.1-0.2-0.1-0.1c0,0.1,0.2,0.1,0.2,0.1c0,0,0,0-0.1,0
				c-0.1,0-0.1,0-0.1,0.1c0,0-0.1,0.1-0.2,0.2c-0.4,0.5-0.8,1.5-1,2.4c-0.3,1-0.4,2-0.6,3c-0.6,4.1-0.7,8.4-0.8,12.6
				c0,2.1,0,4.3,0,6.4l0.1,3.2c0,0.5,0,1.1,0,1.5l0.1,1.6c0.1,2.2,0.2,4.4-0.1,6.7c-0.2,1.2-0.4,2.3-1,3.6c-0.3,0.6-0.7,1.2-1.2,1.8
				c-0.5,0.5-1.3,1-2,1.2c-0.8,0.2-1.5,0.2-2.3,0.1c-0.8-0.1-1.5-0.4-2.1-0.9c-1.3-0.9-1.9-2.1-2.4-3.3c-0.9-2.3-1.2-4.5-1.4-6.7
				c-0.2-2.2-0.3-4.3-0.5-6.4c-0.2-2.3-0.2-4.4-0.3-6.5c-0.1-4.3-0.1-8.6-0.1-12.9l0-6.4c0-0.5,0-1.1,0-1.6l0-0.7
				c0-0.2-0.1-0.4-0.1-0.6c-0.2-0.8-0.6-1.6-1.1-2.3c-1.1-1.4-2.8-2.4-4.7-3.3c-0.9-0.4-1.9-0.9-2.9-1.2c-0.9-0.4-1.9-0.6-2.9-0.9
				c-3.9-0.8-8.1-0.4-12.2,0.5c-2,0.4-4.1,1-6.1,1.6c-0.5,0.2-1.1,0.3-1.5,0.5c-0.4,0.2-0.9,0.4-1.3,0.6c-0.9,0.5-1.7,1.1-2.7,1.7
				c-0.5,0.3-1.1,0.6-1.8,0.8c-0.6,0.2-1.3,0.2-2.1,0.1c-0.8-0.1-1.5-0.6-2-1.3c-0.5-0.6-0.7-1.3-0.8-1.9c-0.1-0.6-0.1-1.2-0.1-1.8
				c0-0.6,0.1-1.2,0.2-1.7c0.2-1.2,0.6-2.3,1.1-3.3c0.6-1,1.3-2,2.2-2.7c0.8-0.8,1.8-1.5,2.8-2c1-0.5,2.1-1,3.2-1.3
				c0.6-0.1,1.1-0.2,1.7-0.3l1.6,0c4.1-0.2,8.2-1.6,12-3.3c1.9-0.9,3.8-1.9,5.6-3c1.8-1.1,3.6-2.3,5.1-3.7c1.5-1.5,3-3.1,4.6-4.5
				c0.8-0.7,1.7-1.4,2.7-1.9c1-0.5,2-1,3.1-1.3c1.1-0.3,2.3-0.3,3.3-0.3c1.1,0,2.2,0.1,3.2,0.1c2.1,0.1,4.3,0.2,6.3-0.3
				c1-0.2,2-0.6,2.8-1.2c0.8-0.5,1.7-1.2,2.6-1.9c1.8-1.2,3.6-2.4,5.6-3.3c2-0.9,4.2-1.5,6.4-1.4c0.6,0,1.1,0,1.7,0.1
				c0.6,0.1,1.1,0.2,1.6,0.4c1.1,0.3,2.1,0.8,3.1,1.3c1.9,1,3.7,2.4,5.3,3.9c1.6,1.5,3,3.3,4,5.3c0.5,1,0.9,2.1,1.1,3.2
				c0.3,1.1,0.3,2.4,0.4,3.3c0.3,1.9,1.1,3.9,2.1,5.7c0.9,1.9,2.1,3.7,3.2,5.5c0.6,0.9,1.1,1.8,1.7,2.8c0.3,0.5,0.5,0.9,0.8,1.3
				c0.3,0.4,0.6,0.8,0.9,1.2c1.2,1.6,2.8,3.1,4.2,4.8c1.4,1.7,2.7,3.8,3.2,6.2c0.5,2.4,0.2,4.8-0.4,6.9l-0.1,0.4
				c-0.1,0.2-0.1,0.4-0.2,0.6c-0.2,0.4-0.5,0.7-0.8,1c-0.6,0.6-1.5,0.9-2.4,0.9c-0.9,0-1.6-0.3-2.2-0.7c-0.6-0.3-1.1-0.7-1.5-1.1
				c-0.9-0.8-1.6-1.7-2.3-2.6c-0.3-0.4-0.7-0.9-1-1.3l-0.9-1.3c-1.3-1.7-2.6-3.3-3.9-4.9c-1.4-1.6-2.8-3.2-4.3-4.7
				c-0.7-0.7-1.5-1.5-2.3-2.1c-0.4-0.3-0.8-0.6-1.2-0.9c-0.2-0.1-0.4-0.3-0.6-0.4l-0.2-0.1c0,0,0.1,0,0.1,0l1.2-0.9
				c-0.4,1.3-0.4,2.8-0.3,4.3c0.1,1.5,0.4,3,0.7,4.6c0.7,3.1,1.7,6,2.8,9c1.1,3,2.3,6,3.2,9.1c0.2,0.8,0.4,1.6,0.6,2.4
				c0.2,0.8,0.4,1.6,0.5,2.5c0.2,1.7,0,3.7-1.1,5.2c-0.6,0.8-1.3,1.4-2.3,1.8c-1,0.3-2.1,0.2-2.9-0.2c-1.8-0.8-2.8-2.4-3.6-3.8
				c-0.8-1.5-1.3-3.1-1.8-4.6l-1.5-4.6c-1-3-2-6.1-3.1-9.1c-0.5-1.5-1.1-3-1.7-4.5c-0.3-0.7-0.6-1.5-0.9-2.2
				c-0.2-0.4-0.3-0.7-0.5-1.1c-0.2-0.3-0.4-0.7-0.7-0.9L80.4,137.3z"/>
		</g>
		<g>
			<path class="st3" d="M47.8,123.3c0,0,15.9-1.5,21-5.6c5.1-4.1,7.7-9.2,12.8-9.2"/>
			<path class="st4" d="M47.8,123.3c3.1-0.7,6.2-1.4,9.3-2.1c3-0.8,6.1-1.6,8.9-2.9c0.7-0.3,1.4-0.7,1.9-1.1
				c0.3-0.2,0.6-0.4,0.9-0.7c0.3-0.2,0.6-0.5,0.9-0.7c1.2-1,2.3-2.1,3.5-3.2c1.2-1.1,2.4-2.2,3.8-3c1.4-0.9,3.1-1.3,4.7-1.1
				c-1.6,0.2-3,0.9-4.2,1.8c-1.2,1-2.2,2.1-3.3,3.3c-1,1.2-2.1,2.4-3.3,3.5c-0.3,0.3-0.6,0.6-0.9,0.8c-0.3,0.3-0.6,0.5-1,0.8
				c-0.7,0.5-1.5,0.9-2.2,1.3c-3,1.3-6.2,2.1-9.4,2.6C54.2,123.1,51,123.3,47.8,123.3z"/>
		</g>
		<g>
			<path class="st3" d="M69.1,151.2c0,0,0.5-2.6,3.1-2.6"/>
			<path class="st4" d="M69.1,151.2c-0.2-0.4-0.1-0.8,0-1.2c0.1-0.4,0.4-0.8,0.7-1.1c0.3-0.3,0.7-0.5,1.2-0.5c0.4-0.1,0.9,0,1.2,0.3
				c-0.4,0.3-0.7,0.4-0.9,0.6c-0.3,0.2-0.5,0.3-0.7,0.6C70.1,150.2,69.7,150.7,69.1,151.2z"/>
		</g>
		<g>
			<path class="st3" d="M95.8,150c0,0-2.6-0.8-4.7,0.3"/>
			<path class="st4" d="M95.8,150c-0.9,0.3-1.6,0.3-2.3,0.3c-0.4,0-0.7,0-1.1,0c-0.4,0-0.8,0-1.2-0.1c0.5-0.8,1.4-1.1,2.3-1.1
				c0.4,0,0.9,0,1.3,0.2C95.1,149.4,95.5,149.6,95.8,150z"/>
		</g>
		<g>
			<path class="st3" d="M109.5,133.2c0,0-4.5-1.4-6.1-0.4"/>
			<path class="st4" d="M109.5,133.2c-1.1,0.2-2.1,0-3.1-0.1l-1.5-0.2c-0.5-0.1-0.9-0.2-1.5-0.1c0.3-0.5,0.9-0.7,1.5-0.8
				c0.6-0.1,1.1-0.1,1.6,0c0.5,0.1,1.1,0.2,1.6,0.4C108.6,132.5,109.1,132.8,109.5,133.2z"/>
		</g>
		<g>
			<path class="st4" d="M50.7,169.2c0.1-0.4,0.4-0.8,0.8-1.1c0.4-0.3,0.8-0.4,1.3-0.4c0.5,0,1,0.1,1.3,0.4c0.4,0.3,0.6,0.7,0.7,1.1
				c-0.5-0.1-0.8-0.2-1.1-0.2c-0.3-0.1-0.6-0.1-0.9-0.1C52.1,168.9,51.5,169,50.7,169.2z"/>
		</g>
		<g>
			<path class="st3" d="M81.4,113.8c0,0-7.2,5.6-7.2,8.2"/>
			<path class="st4" d="M81.4,113.8c-1.1,1.5-2.4,2.8-3.7,4.1c-0.6,0.6-1.3,1.3-1.9,1.9c-0.6,0.7-1.2,1.3-1.6,2.2
				c-0.2-1,0.3-1.9,0.8-2.7c0.5-0.8,1.1-1.5,1.8-2.2c0.7-0.7,1.4-1.3,2.1-1.8C79.7,114.7,80.5,114.2,81.4,113.8z"/>
		</g>
	</g>
	<g>
		<g>
			<path class="st3" d="M158.1,62.6c1.5-0.4,6.5-15.4,9.6-24.1c0-0.1,0-0.1,0.1-0.2c3.6-10.3,10.9-5.9,9.3,1
				c-1.3,5.5-3.1,9.6-4.9,14.5c-1.3,3.7-4.2,12.1-2.8,17.1c1.5,0,9-7.3,14.4-14.9c2.6-3.6,4.1-4.7,5.4-5.1c1.1-0.3,2.3,0.4,2.7,1.5
				c3.2,10.6-4.4,12.8-8,19.5c-1.9,3.4-7.2,10.8-7.2,15.9s-4.1,11.3-11.3,14.9c-7.2,3.6-14.4-1.5-18.5-4.6
				c-4.1-3.1-8.2-2.1-14.4-2.1c-6.2,0-10.2-6.2-13.3-8.7c-4.9-4-14.8-9.7-23.1-9.7c-3.6,0-6.6-2.5-6.6-2.5c-2.9-2.2-4.3-5-4.2-8.8
				c0.2-3.9,3-3.4,4.3-2.9c1.3,0.6,3.1,2.3,5.3,2.9c11,3.6,17.7,4.1,23.8,1.5c3.4-1.4,9.2-3.6,9.2-9.2s0-23.5,0.5-27.7
				c0.5-4.1,0-15.4,5.6-15.4c5.8,0,4.1,12.3,4.1,13.8c0,1.5-1,28.2,3.6,30.2c3,1.3,2.1-5.1,3.1-10.8s5.1-25.6,12.8-24.1
				c3.5,0.7,2.3,7.7,2.1,9.2c-0.5,3.1-3.1,19.5-3.6,22C155.6,57.9,155,63.6,158.1,62.6"/>
			<path class="st4" d="M158,62.4c0.2-0.1,0.5-0.5,0.7-0.9c0.2-0.3,0.4-0.7,0.5-1.1c0.3-0.7,0.6-1.5,0.9-2.2c0.6-1.5,1.1-3,1.7-4.5
				c1.1-3,2.1-6.1,3.1-9.1l1.5-4.6c0.5-1.5,1-3.1,1.8-4.6c0.8-1.5,1.8-3,3.6-3.8c0.9-0.4,2-0.5,2.9-0.2c1,0.3,1.8,1,2.3,1.8
				c1.1,1.6,1.3,3.5,1.1,5.2c-0.1,0.9-0.3,1.7-0.5,2.5c-0.2,0.8-0.4,1.6-0.6,2.4c-0.9,3.1-2.1,6.2-3.2,9.1c-1.1,3-2.1,6-2.8,9
				c-0.3,1.5-0.6,3.1-0.7,4.6c-0.1,1.5-0.1,3,0.3,4.3l-1.2-0.9c0,0-0.1,0-0.1,0l0.2-0.1c0.2-0.1,0.4-0.2,0.6-0.4
				c0.4-0.3,0.8-0.6,1.2-0.9c0.8-0.7,1.5-1.4,2.3-2.1c1.5-1.5,2.9-3,4.3-4.7c1.4-1.6,2.7-3.3,3.9-4.9l0.9-1.3c0.3-0.4,0.7-0.9,1-1.3
				c0.7-0.9,1.4-1.7,2.3-2.6c0.4-0.4,0.9-0.8,1.5-1.1c0.6-0.3,1.2-0.6,2.2-0.7c0.9,0,1.7,0.3,2.4,0.9c0.3,0.3,0.6,0.6,0.8,1
				c0.1,0.2,0.2,0.4,0.2,0.6l0.1,0.4c0.6,2.2,0.9,4.6,0.4,6.9c-0.5,2.4-1.8,4.5-3.2,6.2c-1.4,1.7-3,3.2-4.2,4.8
				c-0.3,0.4-0.6,0.8-0.9,1.2c-0.3,0.4-0.5,0.8-0.8,1.3c-0.6,1-1.1,1.9-1.7,2.8c-1.1,1.8-2.2,3.6-3.2,5.5c-0.9,1.9-1.8,3.8-2.1,5.7
				c-0.1,0.9-0.1,2.2-0.4,3.3c-0.2,1.1-0.7,2.2-1.1,3.2c-1,2-2.4,3.8-4,5.3c-1.6,1.5-3.4,2.9-5.3,3.9c-1,0.5-2,1-3.1,1.3
				c-0.5,0.2-1.1,0.3-1.6,0.4c-0.6,0.1-1.1,0.1-1.7,0.1c-2.3,0.1-4.4-0.6-6.4-1.4c-2-0.9-3.9-2-5.6-3.3c-0.9-0.6-1.7-1.3-2.6-1.9
				c-0.9-0.5-1.8-0.9-2.8-1.2c-2-0.5-4.1-0.4-6.3-0.3c-1.1,0-2.1,0.1-3.2,0.1c-1.1,0-2.2,0-3.3-0.3c-1.1-0.3-2.1-0.7-3.1-1.3
				c-1-0.6-1.8-1.2-2.7-1.9c-1.7-1.4-3.1-3-4.6-4.5c-1.5-1.4-3.3-2.6-5.1-3.7c-1.8-1.1-3.7-2.1-5.6-3c-3.8-1.8-7.9-3.1-12-3.3
				l-1.6,0c-0.6,0-1.2-0.1-1.7-0.3c-1.1-0.3-2.2-0.7-3.2-1.3c-1-0.5-1.9-1.2-2.8-2c-0.8-0.8-1.6-1.7-2.2-2.7c-0.6-1-1-2.2-1.1-3.3
				c-0.1-0.6-0.1-1.2-0.2-1.7c0-0.6,0-1.2,0.1-1.8c0.1-0.6,0.3-1.3,0.8-1.9c0.4-0.6,1.2-1.1,2-1.3c0.8-0.2,1.5-0.1,2.1,0.1
				c0.6,0.1,1.3,0.5,1.8,0.8c1,0.6,1.8,1.2,2.7,1.7c0.4,0.2,0.9,0.4,1.3,0.6c0.4,0.1,1,0.3,1.5,0.5c2,0.6,4.1,1.2,6.1,1.6
				c4.1,0.9,8.3,1.3,12.2,0.5c1-0.2,1.9-0.5,2.9-0.9c0.9-0.4,2-0.8,2.9-1.2c1.9-0.9,3.6-1.9,4.7-3.3c0.6-0.7,0.9-1.5,1.1-2.3
				c0-0.2,0.1-0.4,0.1-0.6l0-0.7c0-0.5,0-1.1,0-1.6l0-6.4c0-4.3,0-8.6,0.1-12.9c0.1-2.2,0.1-4.3,0.3-6.5c0.2-2.1,0.3-4.2,0.5-6.4
				c0.2-2.2,0.5-4.4,1.4-6.7c0.5-1.1,1.1-2.4,2.4-3.3c0.6-0.4,1.4-0.8,2.1-0.9c0.8-0.1,1.5-0.1,2.3,0.1c0.8,0.2,1.5,0.7,2,1.2
				c0.5,0.5,0.9,1.2,1.2,1.8c0.6,1.2,0.8,2.4,1,3.6c0.3,2.3,0.2,4.5,0.1,6.7l-0.1,1.6c0,0.4,0,1,0,1.5l-0.1,3.2c0,2.1,0,4.3,0,6.4
				c0.1,4.2,0.2,8.5,0.8,12.6c0.2,1,0.3,2,0.6,3c0.3,0.9,0.6,1.9,1,2.4c0.1,0.1,0.2,0.2,0.2,0.2c0,0,0.1,0.1,0.1,0.1
				c0.1,0,0.1,0,0.1,0c0,0-0.2,0-0.2,0.1c0,0.1,0,0,0.1-0.1c0.3-0.6,0.4-1.7,0.5-2.7c0.2-2.1,0.3-4.3,0.7-6.5
				c0.4-2.2,0.9-4.3,1.4-6.4c1.1-4.2,2.3-8.4,4.3-12.3c1-2,2.2-3.9,4.1-5.4c1-0.7,2.2-1.3,3.5-1.3c0.3,0,0.6,0.1,1,0.1
				c0.3,0.1,0.7,0.2,1,0.4c0.7,0.4,1.1,1,1.4,1.5c0.6,1.2,0.7,2.4,0.7,3.5c0,1.1-0.1,2.2-0.2,3.3c-0.3,2.2-0.7,4.2-1.1,6.4
				l-2.3,12.6l-0.6,3.2c-0.2,1.1-0.4,2.1-0.5,3.1c-0.1,1-0.2,2.1,0,3.1c0.1,0.5,0.3,1,0.6,1.3C157,62.6,157.5,62.6,158,62.4l0.1,0.3
				c-0.5,0.2-1.2,0.2-1.7-0.2c-0.5-0.4-0.7-1-0.8-1.5c-0.2-1.1-0.2-2.2-0.2-3.3c0.1-1.1,0.3-2.2,0.4-3.2l0.5-3.2l1.8-12.7
				c0.3-2.1,0.6-4.3,0.9-6.3c0.1-1,0.2-2.1,0.1-3.1c-0.1-1-0.2-2-0.6-2.7c-0.4-0.7-0.9-1-1.8-1c-0.8,0-1.6,0.4-2.4,1
				c-1.4,1.2-2.5,3-3.4,4.9c-1.7,3.8-2.9,7.9-3.9,12c-0.5,2.1-0.9,4.2-1.2,6.2c-0.3,2-0.4,4.1-0.5,6.3c0,0.5-0.1,1.1-0.2,1.7
				c-0.1,0.6-0.2,1.2-0.5,1.9c-0.2,0.3-0.4,0.8-0.8,1.2c-0.5,0.4-1.2,0.6-1.7,0.5c-0.3,0-0.5-0.1-0.7-0.2c-0.2-0.1-0.4-0.1-0.6-0.3
				c-0.4-0.2-0.7-0.5-1-0.8c-0.9-1.2-1.2-2.3-1.6-3.4c-0.3-1.1-0.5-2.2-0.7-3.3c-0.7-4.4-0.9-8.7-1-13c0-2.2-0.1-4.3,0-6.5l0-3.2
				c0-0.6,0-1,0-1.7l0.1-1.6c0.1-2.1,0.2-4.2-0.1-6.1c-0.1-1-0.4-1.9-0.7-2.6c-0.4-0.8-0.8-1.1-1.3-1.3c-0.3-0.1-0.6-0.1-0.9,0
				c-0.3,0-0.5,0.2-0.8,0.3c-0.5,0.3-1,1-1.3,1.9c-0.7,1.7-1,3.8-1.2,5.8c-0.2,2.1-0.2,4.2-0.5,6.4c-0.2,2-0.2,4.2-0.3,6.3
				c-0.1,4.3-0.2,8.5-0.2,12.8l0,6.4c0,0.5,0,1,0,1.6l-0.1,1c0,0.3-0.1,0.6-0.2,0.9c-0.3,1.3-0.9,2.4-1.7,3.4c-1.6,2-3.7,3.1-5.7,4
				c-0.5,0.2-1,0.4-1.5,0.7c-0.5,0.2-1,0.4-1.5,0.6c-1.1,0.4-2.2,0.7-3.3,1c-4.5,0.9-9.1,0.3-13.3-0.7c-2.1-0.5-4.2-1.1-6.3-1.8
				c-0.5-0.2-1-0.3-1.6-0.5c-0.6-0.2-1.1-0.5-1.6-0.8c-1-0.6-1.9-1.2-2.7-1.8c-0.4-0.3-0.7-0.4-1.2-0.5C88.2,64,87.8,64,87.5,64
				c-0.3,0.1-0.5,0.2-0.7,0.4c-0.2,0.2-0.3,0.6-0.4,1c-0.1,0.4-0.1,0.9-0.1,1.4c0,0.5,0,1,0.1,1.5c0.1,1,0.4,1.9,0.9,2.7
				c0.9,1.7,2.4,3.1,4.1,4.1c0.9,0.5,1.8,0.9,2.7,1.2c0.5,0.1,1,0.2,1.4,0.3l1.6,0.1c4.5,0.3,8.6,1.9,12.5,3.8
				c3.9,2,7.5,4.3,10.8,7.2c1.6,1.5,3,3.1,4.6,4.5c0.8,0.7,1.6,1.3,2.5,1.8c0.9,0.5,1.8,0.9,2.8,1.2c1,0.2,2,0.3,3.1,0.3
				c1.1,0,2.1,0,3.2-0.1c2.1-0.1,4.3-0.1,6.5,0.4c1.1,0.3,2.1,0.7,3.1,1.3c1,0.6,1.8,1.3,2.6,1.9c1.7,1.2,3.5,2.3,5.5,3.1
				c1.9,0.8,4,1.3,6,1.2c2.1-0.1,4-0.7,5.8-1.8c1.8-1,3.5-2.3,4.9-3.8c1.5-1.5,2.7-3.2,3.5-5c0.4-0.9,0.8-1.9,0.9-2.9
				c0.2-1,0.2-1.9,0.2-3.1c0.3-2.3,1.1-4.4,2.1-6.4c0.9-2,2-3.9,3.1-5.7c0.5-0.9,1.1-1.8,1.6-2.7c0.2-0.4,0.5-1,0.8-1.4
				c0.3-0.5,0.6-0.9,0.9-1.4c1.3-1.8,2.9-3.4,4.2-5c1.3-1.6,2.3-3.3,2.6-5.1c0.4-1.8,0.1-3.8-0.5-5.7l-0.1-0.4c0-0.1,0-0.1-0.1-0.1
				c0-0.1-0.1-0.2-0.2-0.2c-0.2-0.1-0.4-0.2-0.6-0.2c-0.1,0-0.5,0.1-0.9,0.3c-0.3,0.2-0.7,0.5-1,0.8c-0.7,0.6-1.4,1.4-2,2.2
				c-0.3,0.4-0.6,0.8-0.9,1.2l-1,1.3c-1.3,1.7-2.7,3.4-4.1,5.1c-1.4,1.6-2.9,3.2-4.5,4.8c-0.8,0.8-1.6,1.5-2.4,2.2
				c-0.4,0.4-0.9,0.7-1.3,1.1c-0.3,0.2-0.5,0.3-0.8,0.5l-0.5,0.2c-0.2,0.1-0.6,0.2-0.9,0.2l-0.9,0.1l-0.3-1
				c-0.5-1.8-0.5-3.5-0.3-5.2c0.1-1.7,0.5-3.3,0.8-4.9c0.8-3.2,1.8-6.3,3-9.3c1.1-3,2.4-5.9,3.3-9c0.2-0.8,0.5-1.5,0.7-2.3
				c0.2-0.8,0.4-1.5,0.5-2.2c0.2-1.4,0-2.9-0.7-4c-0.4-0.5-0.9-0.9-1.4-1.2c-0.6-0.1-1.2-0.2-1.7,0.1c-1.2,0.5-2.2,1.7-2.9,3
				c-0.7,1.3-1.2,2.8-1.8,4.3l-1.7,4.5c-1.1,3-2.3,6-3.4,9c-0.6,1.5-1.2,3-1.9,4.4c-0.3,0.7-0.7,1.5-1.1,2.2
				c-0.2,0.4-0.4,0.7-0.6,1.1c-0.2,0.3-0.4,0.7-0.9,1L158,62.4z"/>
		</g>
		<g>
			<path class="st4" d="M125.5,76.7c3.2,0,6.4,0.3,9.6,0.8c3.2,0.5,6.3,1.3,9.4,2.6c0.7,0.4,1.5,0.7,2.2,1.3c0.4,0.2,0.7,0.5,1,0.8
				c0.3,0.3,0.6,0.5,0.9,0.8c1.2,1.1,2.3,2.3,3.3,3.5c1.1,1.2,2.1,2.3,3.3,3.3c1.2,1,2.6,1.6,4.2,1.8c-1.6,0.2-3.3-0.3-4.7-1.1
				c-1.4-0.9-2.6-1.9-3.8-3c-1.2-1.1-2.3-2.2-3.5-3.2c-0.3-0.3-0.6-0.5-0.9-0.7c-0.3-0.3-0.6-0.5-0.9-0.7c-0.6-0.4-1.3-0.7-1.9-1.1
				c-2.8-1.3-5.8-2.1-8.9-2.9C131.7,78.1,128.6,77.4,125.5,76.7z"/>
		</g>
		<g>
			<path class="st4" d="M146.8,48.8c0.6,0.6,1,1,1.5,1.4c0.2,0.2,0.4,0.4,0.7,0.6c0.3,0.2,0.6,0.4,0.9,0.6c-0.4,0.2-0.8,0.3-1.2,0.3
				c-0.4,0-0.8-0.3-1.2-0.5c-0.3-0.3-0.6-0.7-0.7-1.1C146.7,49.6,146.6,49.2,146.8,48.8z"/>
		</g>
		<g>
			<path class="st4" d="M173.5,50c-0.3,0.3-0.7,0.5-1.1,0.7c-0.4,0.1-0.8,0.2-1.3,0.2c-0.8,0-1.8-0.3-2.3-1.1
				c0.5-0.1,0.8-0.1,1.2-0.1c0.4,0,0.7,0,1.1,0C171.9,49.7,172.6,49.8,173.5,50z"/>
		</g>
		<g>
			<path class="st4" d="M187.2,66.8c-0.4,0.4-0.9,0.6-1.4,0.8c-0.5,0.2-1,0.3-1.6,0.4c-0.5,0.1-1.1,0.1-1.6,0
				c-0.5-0.1-1.2-0.3-1.5-0.8c0.6,0.1,1,0,1.5-0.1l1.5-0.2C185.1,66.8,186.1,66.7,187.2,66.8z"/>
		</g>
		<g>
			<path class="st4" d="M128.3,30.8c0.9,0.2,1.5,0.3,2.1,0.3c0.3,0,0.6,0,0.9-0.1c0.3,0,0.7-0.2,1.1-0.2c-0.1,0.4-0.4,0.8-0.7,1.1
				c-0.4,0.3-0.9,0.4-1.3,0.4c-0.5,0-0.9-0.2-1.3-0.4C128.7,31.6,128.5,31.3,128.3,30.8z"/>
		</g>
		<g>
			<path class="st4" d="M159.1,86.2c-0.9-0.4-1.7-0.9-2.4-1.4c-0.8-0.5-1.5-1.2-2.1-1.8c-0.6-0.7-1.3-1.4-1.8-2.2
				c-0.5-0.8-1-1.8-0.8-2.7c0.3,0.9,1,1.5,1.6,2.2c0.6,0.6,1.3,1.3,1.9,1.9C156.7,83.4,157.9,84.6,159.1,86.2z"/>
		</g>
	</g>
</g>
</svg>
